<svg xmlns="http://www.w3.org/2000/svg" viewBox="0 0 1440 320">
    <path fill="#dd6935" fill-opacity="1"
        d="M0,64L34.3,74.7C68.6,85,137,107,206,138.7C274.3,171,343,213,411,197.3C480,181,549,107,617,85.3C685.7,64,754,96,823,133.3C891.4,171,960,213,1029,218.7C1097.1,224,1166,192,1234,160C1302.9,128,1371,96,1406,80L1440,64L1440,0L1405.7,0C1371.4,0,1303,0,1234,0C1165.7,0,1097,0,1029,0C960,0,891,0,823,0C754.3,0,686,0,617,0C548.6,0,480,0,411,0C342.9,0,274,0,206,0C137.1,0,69,0,34,0L0,0Z"></path>
</svg>