<svg xmlns="http://www.w3.org/2000/svg" version="1.1" xmlns:xlink="http://www.w3.org/1999/xlink" xmlns:svgjs="http://svgjs.dev/svgjs" width="1000" height="750" viewBox="0 0 1000 750"><rect width="1000" height="750" fill="#ffffff"></rect><g transform="matrix(0.834,0,0,0.834,82.49454545454546,115.4193570850203)"><svg viewBox="0 0 396 247" data-background-color="#ffffff" preserveAspectRatio="xMidYMid meet" height="623" width="1000" xmlns="http://www.w3.org/2000/svg" xmlns:xlink="http://www.w3.org/1999/xlink"><g id="tight-bounds" transform="matrix(1,0,0,1,0.2400000000000091,-0.09999999999999432)"><svg viewBox="0 0 395.52 247.2" height="247.2" width="395.52"><g><svg></svg></g><g><svg viewBox="0 0 395.52 247.2" height="247.2" width="395.52"><g transform="matrix(1,0,0,1,75.54432,68.87613100492413)"><svg viewBox="0 0 244.43135999999998 109.44773799015172" height="109.44773799015172" width="244.43135999999998"><g><svg viewBox="0 0 244.43135999999998 109.44773799015172" height="109.44773799015172" width="244.43135999999998"><g><svg viewBox="0 0 244.43135999999998 109.44773799015172" height="109.44773799015172" width="244.43135999999998"><g><svg viewBox="0 0 244.43135999999998 109.44773799015172" height="109.44773799015172" width="244.43135999999998"><g id="textblocktransform"><svg viewBox="0 0 244.43135999999998 109.44773799015172" height="109.44773799015172" width="244.43135999999998" id="textblock"><g><svg viewBox="0 0 244.43135999999998 77.94929435200235" height="77.94929435200235" width="244.43135999999998"><g transform="matrix(1,0,0,1,0,0)"><svg width="244.43135999999998" viewBox="4.079999923706055 -39.599998474121094 165.19000244140625 52.689998626708984" height="77.94929435200235" data-palette-color="#e8772e"><path d="M9.99-18.46L9.99-4.76Q10.6-4.47 11.29-4.27 11.99-4.08 12.65-3.96 13.31-3.83 13.92-3.78 14.53-3.74 14.97-3.74L14.97-3.74Q16.85-3.74 18.36-4.48 19.87-5.22 20.95-6.51 22.02-7.79 22.6-9.5 23.17-11.21 23.17-13.16L23.17-13.16Q23.17-14.99 22.69-16.58 22.22-18.16 21.36-19.34 20.51-20.51 19.29-21.18 18.07-21.85 16.6-21.85L16.6-21.85Q14.84-21.85 13.15-20.91 11.45-19.97 9.99-18.46L9.99-18.46ZM8.81-25.88L9.69-21.53Q10.57-22.36 11.6-23.22 12.62-24.07 13.81-24.77 14.99-25.46 16.35-25.92 17.7-26.37 19.24-26.37L19.24-26.37Q21.61-26.37 23.47-25.33 25.34-24.29 26.64-22.57 27.93-20.85 28.63-18.62 29.32-16.38 29.32-14.01L29.32-14.01Q29.32-10.89 28.17-8.23 27.03-5.57 25.05-3.63 23.07-1.68 20.41-0.6 17.75 0.49 14.75 0.49L14.75 0.49Q14.16 0.49 13.51 0.45 12.87 0.42 12.24 0.34 11.62 0.27 11.04 0.16 10.45 0.05 9.99-0.1L9.99-0.1 9.99 13.09 4.08 13.09 4.08-25.88 8.81-25.88ZM35.91 0L35.91-39.11 41.82-39.11 41.82 0 35.91 0ZM63.94-3.81L63.94-3.81Q63.3-3.27 62.41-2.53 61.52-1.78 60.43-1.11 59.35-0.44 58.06 0.02 56.78 0.49 55.37 0.49L55.37 0.49Q53.93 0.49 52.69-0.04 51.46-0.56 50.54-1.5 49.63-2.44 49.1-3.75 48.58-5.05 48.58-6.64L48.58-6.64Q48.58-8.3 49.25-9.89 49.92-11.47 51.5-12.72 53.07-13.96 55.66-14.73 58.25-15.5 62.06-15.5L62.06-15.5 63.84-15.5 63.84-17.5Q63.84-18.58 63.47-19.43 63.11-20.29 62.45-20.9 61.79-21.51 60.87-21.83 59.96-22.14 58.83-22.14L58.83-22.14Q57.95-22.14 56.95-21.94 55.95-21.73 54.98-21.36 54-21 53.07-20.5 52.14-20 51.41-19.41L51.41-19.41 50.97-19.65 49.85-23.75Q52.8-25.29 55.34-25.83 57.88-26.37 60.1-26.37L60.1-26.37Q62.4-26.37 64.19-25.9 65.99-25.44 67.23-24.48 68.48-23.51 69.12-22.03 69.77-20.56 69.77-18.53L69.77-18.53 69.77-6.57Q69.77-6.2 69.83-5.76 69.89-5.32 70.08-4.93 70.26-4.54 70.61-4.27 70.97-4 71.55-4L71.55-4Q71.89-4 72.38-4.1 72.87-4.2 73.36-4.42L73.36-4.42 73.36-1.49Q72.04-0.59 70.73-0.05 69.43 0.49 68.18 0.49L68.18 0.49Q67.21 0.49 66.5 0.12 65.79-0.24 65.3-0.84 64.81-1.44 64.48-2.21 64.16-2.98 63.94-3.81ZM63.84-6.96L63.84-12.62 62.3-12.62Q59.76-12.62 58.21-12.27 56.66-11.91 55.81-11.29 54.95-10.67 54.67-9.85 54.39-9.03 54.39-8.08L54.39-8.08Q54.39-7.08 54.68-6.32 54.98-5.57 55.48-5.05 55.98-4.54 56.66-4.27 57.34-4 58.12-4L58.12-4Q58.71-4 59.35-4.14 59.98-4.27 60.68-4.61 61.37-4.96 62.15-5.52 62.93-6.08 63.84-6.96L63.84-6.96ZM78.63 0L78.63-25.88 83.42-25.88 84.25-21.46Q85.1-22.24 86.17-23.11 87.25-23.97 88.52-24.69 89.79-25.42 91.19-25.89 92.6-26.37 94.11-26.37L94.11-26.37Q95.89-26.37 97.34-25.7 98.8-25.02 99.82-23.82 100.85-22.61 101.41-20.92 101.97-19.24 101.97-17.24L101.97-17.24 101.97 0 96.04 0 96.04-16.53Q96.04-17.85 95.67-18.85 95.31-19.85 94.66-20.51 94.01-21.17 93.12-21.51 92.23-21.85 91.2-21.85L91.2-21.85Q89.4-21.85 87.79-20.92 86.17-20 84.54-18.48L84.54-18.48 84.54 0 78.63 0ZM110.1 0L110.1-25.88 116.03-25.88 116.03 0 110.1 0ZM113.05-30.98L113.05-30.98Q112.27-30.98 111.62-31.24 110.98-31.49 110.5-31.93 110.02-32.37 109.77-32.98 109.51-33.59 109.51-34.3L109.51-34.3Q109.51-35.03 109.79-35.66 110.07-36.28 110.57-36.76 111.07-37.23 111.75-37.5 112.42-37.77 113.2-37.77L113.2-37.77Q113.95-37.77 114.59-37.5 115.22-37.23 115.69-36.78 116.15-36.33 116.42-35.71 116.69-35.08 116.69-34.38L116.69-34.38Q116.69-33.64 116.41-33.02 116.13-32.4 115.63-31.95 115.13-31.49 114.47-31.24 113.81-30.98 113.05-30.98ZM126.43 0L126.43-21.66 121.23-21.66 121.67-24.63 126.45-25.88 126.45-27Q126.45-29.59 127.23-31.87 128.01-34.16 129.49-35.88 130.97-37.6 133.14-38.6 135.31-39.6 138.1-39.6L138.1-39.6Q139.17-39.6 140.36-39.44 141.54-39.28 142.64-38.94L142.64-38.94 141.64-34.72 141.15-34.47Q140.39-34.89 139.5-35.13 138.61-35.38 137.63-35.38L137.63-35.38Q136.22-35.38 135.22-34.81 134.22-34.25 133.58-33.26 132.95-32.28 132.65-30.92 132.36-29.57 132.36-27.98L132.36-27.98 132.36-25.88 140.95-25.88 139.9-21.66 132.36-21.66 132.36 0 126.43 0ZM153.57 0L144.32-25.88 150.86-25.88 155.89-9.3 157.02-4.44 157.5-4.44 158.6-9.3 163.68-25.88 169.27-25.88 155.38 13.09 149.91 13.09 155.38 0 153.57 0Z" opacity="1" transform="matrix(1,0,0,1,0,0)" fill="#e8772e" class="undefined-text-0" data-fill-palette-color="primary" id="text-0"></path></svg></g></svg></g><g transform="matrix(1,0,0,1,0,96.35125196544567)"><svg viewBox="0 0 244.43135999999998 13.096486024706056" height="13.096486024706056" width="244.43135999999998"><g transform="matrix(1,0,0,1,0,0)"><svg width="244.43135999999998" viewBox="3 -41.5 1007.75 54" height="13.096486024706056" data-palette-color="#e8772e"><path d="M21.4 0.5L21.4 0.5Q17.15 0.5 13.75-0.85 10.35-2.2 7.95-4.67 5.55-7.15 4.28-10.7 3-14.25 3-18.6L3-18.6Q3-23.15 4.4-26.9 5.8-30.65 8.33-33.35 10.85-36.05 14.38-37.52 17.9-39 22.15-39L22.15-39Q25.15-39 27.8-38.15 30.45-37.3 33.55-35.4L33.55-35.4 34.6-38.5 36.35-38.5 35.7-27 33.3-27Q33.3-29.45 32.38-31.23 31.45-33 29.95-34.15 28.45-35.3 26.53-35.85 24.6-36.4 22.6-36.4L22.6-36.4Q19.55-36.4 17.15-35.2 14.75-34 13.1-31.75 11.45-29.5 10.58-26.25 9.7-23 9.7-18.9L9.7-18.9Q9.7-10.85 13.05-6.53 16.4-2.2 22.75-2.2L22.75-2.2Q25.15-2.2 27.05-2.78 28.95-3.35 30.28-4.33 31.6-5.3 32.27-6.58 32.95-7.85 32.95-9.25L32.95-9.25Q32.95-12.15 31.78-13.18 30.6-14.2 27.95-14.2L27.95-14.2 27.95-16.1 42.15-16.1 42.15-14.2Q40.95-14.2 40.15-14 39.35-13.8 38.88-13.28 38.4-12.75 38.23-11.9 38.05-11.05 38.05-9.75L38.05-9.75 38.05-4.15Q37.1-4.15 36.33-4.08 35.55-4 34.7-3.73 33.85-3.45 32.83-2.98 31.8-2.5 30.4-1.7L30.4-1.7Q28.65-0.7 26.38-0.1 24.1 0.5 21.4 0.5ZM68.05-6.05L69.6-4.65Q65.35 0.5 59.05 0.5L59.05 0.5Q56.1 0.5 53.7-0.48 51.3-1.45 49.57-3.23 47.85-5 46.9-7.48 45.95-9.95 45.95-12.95L45.95-12.95Q45.95-16 46.95-18.6 47.95-21.2 49.77-23.05 51.6-24.9 54.12-25.95 56.65-27 59.65-27L59.65-27Q64.5-27 67.15-24.38 69.8-21.75 69.8-16.85L69.8-16.85Q69.8-16.15 69.52-16 69.25-15.85 68.25-15.85L68.25-15.85 51.8-15.85Q51.7-15.45 51.65-14.88 51.6-14.3 51.6-13.6L51.6-13.6Q51.6-11 52.22-8.88 52.85-6.75 54.02-5.25 55.2-3.75 56.82-2.93 58.45-2.1 60.45-2.1L60.45-2.1Q62.55-2.1 64.35-3.03 66.15-3.95 68.05-6.05L68.05-6.05ZM52.15-18.15L61.35-18.15Q62.35-18.15 62.95-18.2 63.55-18.25 63.85-18.4 64.15-18.55 64.25-18.82 64.35-19.1 64.35-19.55L64.35-19.55Q64.35-21.85 62.87-23.23 61.4-24.6 58.85-24.6L58.85-24.6Q53.45-24.6 52.15-18.15L52.15-18.15ZM77.45-1.75L76.45 0 75.35 0 75.35-8.6 76.6-8.6Q78.55-1.55 83.7-1.55L83.7-1.55Q85.7-1.55 86.87-2.53 88.05-3.5 88.05-5.5L88.05-5.5Q88.05-6.25 87.82-6.78 87.6-7.3 86.97-7.88 86.35-8.45 85.22-9.2 84.1-9.95 82.25-11.1L82.25-11.1Q80.55-12.15 79.3-13.05 78.05-13.95 77.2-14.88 76.35-15.8 75.92-16.85 75.5-17.9 75.5-19.3L75.5-19.3Q75.5-21 76.07-22.43 76.65-23.85 77.65-24.85 78.65-25.85 80-26.43 81.35-27 82.95-27L82.95-27Q84.3-27 85.75-26.58 87.2-26.15 88.3-25.45L88.3-25.45 89.3-26.5 90.25-26.5 90.25-19.3 88.95-19.3Q87.85-22.35 86.55-23.65 85.25-24.95 83.35-24.95L83.35-24.95Q81.65-24.95 80.62-24.05 79.6-23.15 79.6-21.55L79.6-21.55Q79.6-20.7 79.87-20.08 80.15-19.45 80.75-18.85 81.35-18.25 82.27-17.63 83.2-17 84.5-16.2L84.5-16.2Q86.65-14.85 88.17-13.8 89.7-12.75 90.65-11.73 91.6-10.7 92.05-9.6 92.5-8.5 92.5-7.1L92.5-7.1Q92.5-3.55 90.2-1.53 87.9 0.5 84.15 0.5L84.15 0.5Q80.25 0.5 77.45-1.75L77.45-1.75ZM99.84-23.35L96.84-23.35 96.84-25.2Q99.49-26.75 100.99-28.3 102.49-29.85 103.29-32L103.29-32 104.74-32 104.74-25.7 111.44-25.7 111.44-23.35 104.74-23.35 104.74-8.15Q104.74-6.4 104.92-5.2 105.09-4 105.49-3.28 105.89-2.55 106.54-2.25 107.19-1.95 108.19-1.95L108.19-1.95Q109.44-1.95 110.32-2.48 111.19-3 112.04-4.25L112.04-4.25 113.29-3.3Q112.59-1.45 110.87-0.48 109.14 0.5 106.59 0.5L106.59 0.5Q103.29 0.5 101.57-1.07 99.84-2.65 99.84-5.6L99.84-5.6 99.84-23.35ZM125.14-27L125.14-7.95Q125.14-6 125.32-4.83 125.49-3.65 125.99-2.98 126.49-2.3 127.39-2.05 128.29-1.8 129.79-1.75L129.79-1.75 129.79 0 115.44 0 115.44-1.75Q116.94-1.8 117.89-2.08 118.84-2.35 119.37-2.98 119.89-3.6 120.07-4.73 120.24-5.85 120.24-7.6L120.24-7.6 120.24-14Q120.24-16.9 120.17-18.78 120.09-20.65 119.89-21.35L119.89-21.35Q119.64-22.5 118.74-22.93 117.84-23.35 115.34-23.35L115.34-23.35 115.34-25.1 125.14-27ZM119.39-37.15L119.39-37.15Q119.39-38.45 120.29-39.35 121.19-40.25 122.49-40.25L122.49-40.25Q123.79-40.25 124.69-39.35 125.59-38.45 125.59-37.15L125.59-37.15Q125.59-35.85 124.69-34.95 123.79-34.05 122.49-34.05L122.49-34.05Q121.19-34.05 120.29-34.95 119.39-35.85 119.39-37.15ZM147.04-27L147.04-27Q149.89-27 152.44-25.98 154.99-24.95 156.91-23.15 158.84-21.35 159.96-18.88 161.09-16.4 161.09-13.45L161.09-13.45Q161.09-10.4 159.96-7.85 158.84-5.3 156.91-3.45 154.99-1.6 152.44-0.55 149.89 0.5 147.04 0.5L147.04 0.5Q144.24 0.5 141.71-0.53 139.19-1.55 137.29-3.4 135.39-5.25 134.29-7.83 133.19-10.4 133.19-13.45L133.19-13.45Q133.19-16.4 134.29-18.9 135.39-21.4 137.29-23.2 139.19-25 141.71-26 144.24-27 147.04-27ZM147.04-24.6L147.04-24.6Q145.19-24.6 143.66-23.8 142.14-23 141.06-21.53 139.99-20.05 139.41-17.98 138.84-15.9 138.84-13.4L138.84-13.4Q138.84-10.8 139.41-8.7 139.99-6.6 141.06-5.13 142.14-3.65 143.64-2.85 145.14-2.05 147.04-2.05L147.04-2.05Q148.94-2.05 150.49-2.85 152.04-3.65 153.14-5.15 154.24-6.65 154.84-8.75 155.44-10.85 155.44-13.4L155.44-13.4Q155.44-15.9 154.84-17.95 154.24-20 153.14-21.48 152.04-22.95 150.49-23.78 148.94-24.6 147.04-24.6ZM174.29-14.55L174.29-7.85Q174.29-5.8 174.39-4.63 174.49-3.45 174.91-2.83 175.34-2.2 176.16-2 176.99-1.8 178.44-1.7L178.44-1.7 178.44 0 165.34 0 165.34-1.7Q166.74-1.8 167.56-2 168.39-2.2 168.84-2.8 169.29-3.4 169.41-4.5 169.54-5.6 169.54-7.5L169.54-7.5 169.54-14.15Q169.54-20.1 169.24-21.4L169.24-21.4Q169.09-22.05 168.86-22.48 168.64-22.9 168.19-23.13 167.74-23.35 167.04-23.43 166.34-23.5 165.24-23.5L165.24-23.5 165.24-25.1 173.24-27 173.84-22.05 174.04-22.05Q175.94-24.4 178.49-25.7 181.04-27 184.04-27L184.04-27Q186.34-27 188.24-26.25 190.14-25.5 191.14-24.2L191.14-24.2Q191.99-23.05 192.34-21.23 192.69-19.4 192.69-16.2L192.69-16.2 192.69-7.85Q192.69-5.8 192.81-4.63 192.94-3.45 193.34-2.83 193.74-2.2 194.56-2 195.39-1.8 196.74-1.7L196.74-1.7 196.74 0 183.79 0 183.79-1.7Q185.19-1.75 186.01-1.98 186.84-2.2 187.26-2.8 187.69-3.4 187.81-4.53 187.94-5.65 187.94-7.5L187.94-7.5 187.94-14.1Q187.94-16.95 187.64-18.9 187.34-20.85 186.66-22.05 185.99-23.25 184.89-23.78 183.79-24.3 182.24-24.3L182.24-24.3Q179.99-24.3 178.11-23.13 176.24-21.95 175.19-19.9L175.19-19.9Q174.94-19.4 174.76-18.95 174.59-18.5 174.49-17.9 174.39-17.3 174.34-16.53 174.29-15.75 174.29-14.55L174.29-14.55ZM215.38-10.85L215.38-14.8Q212.53-13.7 210.56-12.65 208.58-11.6 207.38-10.55 206.18-9.5 205.66-8.45 205.13-7.4 205.13-6.3L205.13-6.3Q205.13-4.65 206.23-3.6 207.33-2.55 209.13-2.55L209.13-2.55Q210.43-2.55 211.56-3.2 212.68-3.85 213.53-4.98 214.38-6.1 214.88-7.63 215.38-9.15 215.38-10.85L215.38-10.85ZM208.18-13.8L215.38-16.95 215.38-19Q215.38-25.1 210.18-25.1L210.18-25.1Q209.33-25.1 208.73-24.95 208.13-24.8 207.73-24.45 207.33-24.1 207.01-23.45 206.68-22.8 206.38-21.85L206.38-21.85Q205.83-20.4 205.31-19.93 204.78-19.45 203.78-19.45L203.78-19.45Q201.28-19.45 201.28-21.95L201.28-21.95Q201.28-24.35 203.83-25.68 206.38-27 211.08-27L211.08-27Q216.08-27 218.18-25.23 220.28-23.45 220.28-19.2L220.28-19.2 220.28-8Q220.28-2.3 222.53-2.3L222.53-2.3Q223.23-2.3 223.88-2.48 224.53-2.65 224.98-3.4L224.98-3.4 225.68-2.2Q225.08-1.05 223.48-0.28 221.88 0.5 220.13 0.5L220.13 0.5Q217.93 0.5 216.86-0.9 215.78-2.3 215.78-4.85L215.78-4.85 215.53-4.85Q214.23-2.4 211.93-0.98 209.63 0.45 206.83 0.45L206.83 0.45Q203.68 0.45 201.88-1.15 200.08-2.75 200.08-5.45L200.08-5.45Q200.08-6.65 200.51-7.75 200.93-8.85 201.88-9.85 202.83-10.85 204.38-11.83 205.93-12.8 208.18-13.8L208.18-13.8ZM263.98-6.05L265.53-4.65Q261.28 0.5 254.98 0.5L254.98 0.5Q252.03 0.5 249.63-0.48 247.23-1.45 245.5-3.23 243.78-5 242.83-7.48 241.88-9.95 241.88-12.95L241.88-12.95Q241.88-16 242.88-18.6 243.88-21.2 245.7-23.05 247.53-24.9 250.05-25.95 252.58-27 255.58-27L255.58-27Q260.43-27 263.08-24.38 265.73-21.75 265.73-16.85L265.73-16.85Q265.73-16.15 265.45-16 265.18-15.85 264.18-15.85L264.18-15.85 247.73-15.85Q247.63-15.45 247.58-14.88 247.53-14.3 247.53-13.6L247.53-13.6Q247.53-11 248.15-8.88 248.78-6.75 249.95-5.25 251.13-3.75 252.75-2.93 254.38-2.1 256.38-2.1L256.38-2.1Q258.48-2.1 260.28-3.03 262.08-3.95 263.98-6.05L263.98-6.05ZM248.08-18.15L257.28-18.15Q258.28-18.15 258.88-18.2 259.48-18.25 259.78-18.4 260.08-18.55 260.18-18.82 260.28-19.1 260.28-19.55L260.28-19.55Q260.28-21.85 258.8-23.23 257.33-24.6 254.78-24.6L254.78-24.6Q249.38-24.6 248.08-18.15L248.08-18.15ZM278.52-41.5L278.52-7.8Q278.52-5.9 278.68-4.75 278.82-3.6 279.3-2.95 279.77-2.3 280.65-2.05 281.52-1.8 282.97-1.75L282.97-1.75 282.97 0 269.18 0 269.18-1.75Q270.68-1.8 271.57-2.08 272.47-2.35 273-2.95 273.52-3.55 273.7-4.63 273.88-5.7 273.88-7.45L273.88-7.45 273.88-29Q273.88-31.7 273.8-33.52 273.72-35.35 273.57-36L273.57-36Q273.32-37.15 272.4-37.55 271.47-37.95 269.07-37.95L269.07-37.95 269.07-39.65 278.52-41.5ZM309.17-26.8L309.17-22.9 309.37-22.9Q310.97-24.8 312.82-25.9 314.67-27 317.12-27L317.12-27Q319.97-27 322.35-25.98 324.72-24.95 326.47-23.1 328.22-21.25 329.19-18.73 330.17-16.2 330.17-13.2L330.17-13.2Q330.17-10.15 329.17-7.63 328.17-5.1 326.42-3.3 324.67-1.5 322.27-0.5 319.87 0.5 317.07 0.5L317.07 0.5Q314.77 0.5 312.9-0.28 311.02-1.05 309.37-2.8L309.37-2.8 309.37 4.5Q309.37 6.5 309.57 7.7 309.77 8.9 310.37 9.55 310.97 10.2 312.1 10.45 313.22 10.7 315.07 10.75L315.07 10.75 315.07 12.5 299.67 12.5 299.67 10.75Q301.17 10.7 302.1 10.45 303.02 10.2 303.55 9.55 304.07 8.9 304.27 7.78 304.47 6.65 304.47 4.85L304.47 4.85 304.47-13.85Q304.47-16.75 304.4-18.6 304.32-20.45 304.12-21.15L304.12-21.15Q303.87-22.35 302.97-22.78 302.07-23.2 299.57-23.2L299.57-23.2 299.57-24.9 309.17-26.8ZM310.67-21.45L310.67-21.45Q310.02-20.45 309.69-19.07 309.37-17.7 309.37-15.5L309.37-15.5 309.37-11.6Q309.37-10.25 309.44-9.28 309.52-8.3 309.67-7.6 309.82-6.9 310.07-6.35 310.32-5.8 310.72-5.3L310.72-5.3Q311.87-3.7 313.47-2.83 315.07-1.95 316.82-1.95L316.82-1.95Q320.27-1.95 322.4-4.85 324.52-7.75 324.52-13L324.52-13Q324.52-15.6 323.94-17.73 323.37-19.85 322.32-21.38 321.27-22.9 319.8-23.75 318.32-24.6 316.52-24.6L316.52-24.6Q314.72-24.6 313.19-23.78 311.67-22.95 310.67-21.45ZM343.07-41.5L343.07-7.8Q343.07-5.9 343.22-4.75 343.37-3.6 343.84-2.95 344.32-2.3 345.19-2.05 346.07-1.8 347.52-1.75L347.52-1.75 347.52 0 333.72 0 333.72-1.75Q335.22-1.8 336.12-2.08 337.02-2.35 337.54-2.95 338.07-3.55 338.24-4.63 338.42-5.7 338.42-7.45L338.42-7.45 338.42-29Q338.42-31.7 338.34-33.52 338.27-35.35 338.12-36L338.12-36Q337.87-37.15 336.94-37.55 336.02-37.95 333.62-37.95L333.62-37.95 333.62-39.65 343.07-41.5ZM366.31-10.85L366.31-14.8Q363.47-13.7 361.49-12.65 359.51-11.6 358.31-10.55 357.12-9.5 356.59-8.45 356.06-7.4 356.06-6.3L356.06-6.3Q356.06-4.65 357.17-3.6 358.26-2.55 360.06-2.55L360.06-2.55Q361.37-2.55 362.49-3.2 363.62-3.85 364.47-4.98 365.31-6.1 365.81-7.63 366.31-9.15 366.31-10.85L366.31-10.85ZM359.12-13.8L366.31-16.95 366.31-19Q366.31-25.1 361.12-25.1L361.12-25.1Q360.26-25.1 359.67-24.95 359.06-24.8 358.67-24.45 358.26-24.1 357.94-23.45 357.62-22.8 357.31-21.85L357.31-21.85Q356.76-20.4 356.24-19.93 355.72-19.45 354.72-19.45L354.72-19.45Q352.22-19.45 352.22-21.95L352.22-21.95Q352.22-24.35 354.76-25.68 357.31-27 362.01-27L362.01-27Q367.01-27 369.12-25.23 371.22-23.45 371.22-19.2L371.22-19.2 371.22-8Q371.22-2.3 373.47-2.3L373.47-2.3Q374.17-2.3 374.81-2.48 375.47-2.65 375.92-3.4L375.92-3.4 376.62-2.2Q376.01-1.05 374.42-0.28 372.81 0.5 371.06 0.5L371.06 0.5Q368.87 0.5 367.79-0.9 366.72-2.3 366.72-4.85L366.72-4.85 366.47-4.85Q365.17-2.4 362.87-0.98 360.56 0.45 357.76 0.45L357.76 0.45Q354.62 0.45 352.81-1.15 351.01-2.75 351.01-5.45L351.01-5.45Q351.01-6.65 351.44-7.75 351.87-8.85 352.81-9.85 353.76-10.85 355.31-11.83 356.87-12.8 359.12-13.8L359.12-13.8ZM387.36-14.55L387.36-7.85Q387.36-5.8 387.46-4.63 387.56-3.45 387.99-2.83 388.41-2.2 389.24-2 390.06-1.8 391.51-1.7L391.51-1.7 391.51 0 378.41 0 378.41-1.7Q379.81-1.8 380.64-2 381.46-2.2 381.91-2.8 382.36-3.4 382.49-4.5 382.61-5.6 382.61-7.5L382.61-7.5 382.61-14.15Q382.61-20.1 382.31-21.4L382.31-21.4Q382.16-22.05 381.94-22.48 381.71-22.9 381.26-23.13 380.81-23.35 380.11-23.43 379.41-23.5 378.31-23.5L378.31-23.5 378.31-25.1 386.31-27 386.91-22.05 387.11-22.05Q389.01-24.4 391.56-25.7 394.11-27 397.11-27L397.11-27Q399.41-27 401.31-26.25 403.21-25.5 404.21-24.2L404.21-24.2Q405.06-23.05 405.41-21.23 405.76-19.4 405.76-16.2L405.76-16.2 405.76-7.85Q405.76-5.8 405.89-4.63 406.01-3.45 406.41-2.83 406.81-2.2 407.64-2 408.46-1.8 409.81-1.7L409.81-1.7 409.81 0 396.86 0 396.86-1.7Q398.26-1.75 399.09-1.98 399.91-2.2 400.34-2.8 400.76-3.4 400.89-4.53 401.01-5.65 401.01-7.5L401.01-7.5 401.01-14.1Q401.01-16.95 400.71-18.9 400.41-20.85 399.74-22.05 399.06-23.25 397.96-23.78 396.86-24.3 395.31-24.3L395.31-24.3Q393.06-24.3 391.19-23.13 389.31-21.95 388.26-19.9L388.26-19.9Q388.01-19.4 387.84-18.95 387.66-18.5 387.56-17.9 387.46-17.3 387.41-16.53 387.36-15.75 387.36-14.55L387.36-14.55ZM435.86-26.8L435.86-22.9 436.06-22.9Q437.66-24.8 439.51-25.9 441.36-27 443.81-27L443.81-27Q446.66-27 449.03-25.98 451.41-24.95 453.16-23.1 454.91-21.25 455.88-18.73 456.86-16.2 456.86-13.2L456.86-13.2Q456.86-10.15 455.86-7.63 454.86-5.1 453.11-3.3 451.36-1.5 448.96-0.5 446.56 0.5 443.76 0.5L443.76 0.5Q441.46 0.5 439.58-0.28 437.71-1.05 436.06-2.8L436.06-2.8 436.06 4.5Q436.06 6.5 436.26 7.7 436.46 8.9 437.06 9.55 437.66 10.2 438.78 10.45 439.91 10.7 441.76 10.75L441.76 10.75 441.76 12.5 426.36 12.5 426.36 10.75Q427.86 10.7 428.78 10.45 429.71 10.2 430.23 9.55 430.76 8.9 430.96 7.78 431.16 6.65 431.16 4.85L431.16 4.85 431.16-13.85Q431.16-16.75 431.08-18.6 431.01-20.45 430.81-21.15L430.81-21.15Q430.56-22.35 429.66-22.78 428.76-23.2 426.26-23.2L426.26-23.2 426.26-24.9 435.86-26.8ZM437.36-21.45L437.36-21.45Q436.71-20.45 436.38-19.07 436.06-17.7 436.06-15.5L436.06-15.5 436.06-11.6Q436.06-10.25 436.13-9.28 436.21-8.3 436.36-7.6 436.51-6.9 436.76-6.35 437.01-5.8 437.41-5.3L437.41-5.3Q438.56-3.7 440.16-2.83 441.76-1.95 443.51-1.95L443.51-1.95Q446.96-1.95 449.08-4.85 451.21-7.75 451.21-13L451.21-13Q451.21-15.6 450.63-17.73 450.06-19.85 449.01-21.38 447.96-22.9 446.48-23.75 445.01-24.6 443.21-24.6L443.21-24.6Q441.41-24.6 439.88-23.78 438.36-22.95 437.36-21.45ZM483.86-6.05L485.41-4.65Q481.16 0.5 474.86 0.5L474.86 0.5Q471.91 0.5 469.5-0.48 467.11-1.45 465.38-3.23 463.66-5 462.7-7.48 461.75-9.95 461.75-12.95L461.75-12.95Q461.75-16 462.75-18.6 463.75-21.2 465.58-23.05 467.41-24.9 469.93-25.95 472.45-27 475.45-27L475.45-27Q480.31-27 482.95-24.38 485.61-21.75 485.61-16.85L485.61-16.85Q485.61-16.15 485.33-16 485.06-15.85 484.06-15.85L484.06-15.85 467.61-15.85Q467.5-15.45 467.45-14.88 467.41-14.3 467.41-13.6L467.41-13.6Q467.41-11 468.03-8.88 468.66-6.75 469.83-5.25 471-3.75 472.63-2.93 474.25-2.1 476.25-2.1L476.25-2.1Q478.36-2.1 480.16-3.03 481.95-3.95 483.86-6.05L483.86-6.05ZM467.95-18.15L477.16-18.15Q478.16-18.15 478.75-18.2 479.36-18.25 479.66-18.4 479.95-18.55 480.06-18.82 480.16-19.1 480.16-19.55L480.16-19.55Q480.16-21.85 478.68-23.23 477.2-24.6 474.66-24.6L474.66-24.6Q469.25-24.6 467.95-18.15L467.95-18.15ZM499.05-9.65L499.05-7.95Q499.05-5.9 499.15-4.7 499.25-3.5 499.68-2.88 500.1-2.25 500.9-2.05 501.7-1.85 503.15-1.75L503.15-1.75 503.15 0 489.85 0 489.85-1.75Q491.3-1.8 492.15-2.02 493-2.25 493.45-2.85 493.9-3.45 494.03-4.58 494.15-5.7 494.15-7.6L494.15-7.6 494.15-13.45Q494.15-16.85 494.08-18.75 494-20.65 493.58-21.55 493.15-22.45 492.25-22.63 491.35-22.8 489.75-22.8L489.75-22.8 489.75-24.55 498.5-26.45 499.2-20.25 499.4-20.25Q500.05-21.75 501.03-23 502-24.25 503.15-25.13 504.3-26 505.55-26.5 506.8-27 508.1-27L508.1-27Q509.7-27 510.63-26.23 511.55-25.45 511.55-24.15L511.55-24.15Q511.55-22.95 510.8-22.28 510.05-21.6 508.65-21.6L508.65-21.6Q507.85-21.6 507.3-21.8 506.75-22 506.33-22.23 505.9-22.45 505.53-22.65 505.15-22.85 504.7-22.85L504.7-22.85Q503.35-22.85 502-21.13 500.65-19.4 499.9-16.75L499.9-16.75Q499.5-15.3 499.28-13.48 499.05-11.65 499.05-9.65L499.05-9.65ZM512.9-23.35L512.9-25.7 518.55-25.7 518.55-29.3Q518.55-35.05 521.58-38.27 524.6-41.5 530.2-41.5L530.2-41.5Q533.3-41.5 535.25-40.55 537.2-39.6 537.2-38.1L537.2-38.1Q537.2-37.1 536.58-36.43 535.95-35.75 535-35.75L535-35.75Q534.4-35.75 533.73-36.13 533.05-36.5 531.95-37.4L531.95-37.4Q530.7-38.45 530-38.78 529.3-39.1 528.35-39.1L528.35-39.1Q525.35-39.1 524.05-36.05L524.05-36.05Q523.6-35.05 523.42-33.6 523.25-32.15 523.25-29.6L523.25-29.6 523.25-25.7 531.3-25.7 531.3-23.35 523.25-23.35 523.25-8.05Q523.25-6.2 523.48-5 523.7-3.8 524.27-3.08 524.85-2.35 525.85-2.08 526.85-1.8 528.45-1.75L528.45-1.75 528.45 0 514.25 0 514.25-1.75Q515.65-1.8 516.5-2.02 517.35-2.25 517.8-2.88 518.25-3.5 518.4-4.63 518.55-5.75 518.55-7.65L518.55-7.65 518.55-23.35 512.9-23.35ZM556.4-6.05L557.95-4.65Q553.7 0.5 547.4 0.5L547.4 0.5Q544.45 0.5 542.05-0.48 539.65-1.45 537.92-3.23 536.2-5 535.25-7.48 534.3-9.95 534.3-12.95L534.3-12.95Q534.3-16 535.3-18.6 536.3-21.2 538.12-23.05 539.95-24.9 542.47-25.95 545-27 548-27L548-27Q552.85-27 555.5-24.38 558.15-21.75 558.15-16.85L558.15-16.85Q558.15-16.15 557.87-16 557.6-15.85 556.6-15.85L556.6-15.85 540.15-15.85Q540.05-15.45 540-14.88 539.95-14.3 539.95-13.6L539.95-13.6Q539.95-11 540.57-8.88 541.2-6.75 542.37-5.25 543.55-3.75 545.17-2.93 546.8-2.1 548.8-2.1L548.8-2.1Q550.9-2.1 552.7-3.03 554.5-3.95 556.4-6.05L556.4-6.05ZM540.5-18.15L549.7-18.15Q550.7-18.15 551.3-18.2 551.9-18.25 552.2-18.4 552.5-18.55 552.6-18.82 552.7-19.1 552.7-19.55L552.7-19.55Q552.7-21.85 551.22-23.23 549.75-24.6 547.2-24.6L547.2-24.6Q541.8-24.6 540.5-18.15L540.5-18.15ZM584.29-5.6L585.79-4.15Q583.99-1.95 581.14-0.73 578.29 0.5 574.99 0.5L574.99 0.5Q572.34 0.5 570.12-0.48 567.89-1.45 566.29-3.23 564.69-5 563.82-7.5 562.94-10 562.94-13.05L562.94-13.05Q562.94-16.25 563.94-18.82 564.94-21.4 566.77-23.23 568.59-25.05 571.17-26.03 573.74-27 576.84-27L576.84-27Q578.79-27 580.39-26.68 581.99-26.35 583.17-25.78 584.34-25.2 584.99-24.38 585.64-23.55 585.64-22.6L585.64-22.6Q585.64-21.6 584.99-21.05 584.34-20.5 583.19-20.5L583.19-20.5Q582.29-20.5 581.69-20.88 581.09-21.25 580.14-22.55L580.14-22.55Q579.14-23.7 578.22-24.18 577.29-24.65 575.84-24.65L575.84-24.65Q572.29-24.65 570.47-21.9 568.64-19.15 568.64-13.8L568.64-13.8Q568.64-8.05 570.67-5.08 572.69-2.1 576.59-2.1L576.59-2.1Q578.69-2.1 580.54-2.93 582.39-3.75 584.29-5.6L584.29-5.6ZM592.29-23.35L589.29-23.35 589.29-25.2Q591.94-26.75 593.44-28.3 594.94-29.85 595.74-32L595.74-32 597.19-32 597.19-25.7 603.89-25.7 603.89-23.35 597.19-23.35 597.19-8.15Q597.19-6.4 597.37-5.2 597.54-4 597.94-3.28 598.34-2.55 598.99-2.25 599.64-1.95 600.64-1.95L600.64-1.95Q601.89-1.95 602.77-2.48 603.64-3 604.49-4.25L604.49-4.25 605.74-3.3Q605.04-1.45 603.32-0.48 601.59 0.5 599.04 0.5L599.04 0.5Q595.74 0.5 594.02-1.07 592.29-2.65 592.29-5.6L592.29-5.6 592.29-23.35ZM622.44-27L622.44-27Q625.29-27 627.84-25.98 630.39-24.95 632.31-23.15 634.24-21.35 635.36-18.88 636.49-16.4 636.49-13.45L636.49-13.45Q636.49-10.4 635.36-7.85 634.24-5.3 632.31-3.45 630.39-1.6 627.84-0.55 625.29 0.5 622.44 0.5L622.44 0.5Q619.64 0.5 617.11-0.53 614.59-1.55 612.69-3.4 610.79-5.25 609.69-7.83 608.59-10.4 608.59-13.45L608.59-13.45Q608.59-16.4 609.69-18.9 610.79-21.4 612.69-23.2 614.59-25 617.11-26 619.64-27 622.44-27ZM622.44-24.6L622.44-24.6Q620.59-24.6 619.06-23.8 617.54-23 616.46-21.53 615.39-20.05 614.81-17.98 614.24-15.9 614.24-13.4L614.24-13.4Q614.24-10.8 614.81-8.7 615.39-6.6 616.46-5.13 617.54-3.65 619.04-2.85 620.54-2.05 622.44-2.05L622.44-2.05Q624.34-2.05 625.89-2.85 627.44-3.65 628.54-5.15 629.64-6.65 630.24-8.75 630.84-10.85 630.84-13.4L630.84-13.4Q630.84-15.9 630.24-17.95 629.64-20 628.54-21.48 627.44-22.95 625.89-23.78 624.34-24.6 622.44-24.6ZM663.73-26.8L663.73-22.9 663.93-22.9Q665.53-24.8 667.38-25.9 669.23-27 671.68-27L671.68-27Q674.53-27 676.91-25.98 679.28-24.95 681.03-23.1 682.78-21.25 683.76-18.73 684.73-16.2 684.73-13.2L684.73-13.2Q684.73-10.15 683.73-7.63 682.73-5.1 680.98-3.3 679.23-1.5 676.83-0.5 674.43 0.5 671.63 0.5L671.63 0.5Q669.33 0.5 667.46-0.28 665.58-1.05 663.93-2.8L663.93-2.8 663.93 4.5Q663.93 6.5 664.13 7.7 664.33 8.9 664.93 9.55 665.53 10.2 666.66 10.45 667.78 10.7 669.63 10.75L669.63 10.75 669.63 12.5 654.23 12.5 654.23 10.75Q655.73 10.7 656.66 10.45 657.58 10.2 658.11 9.55 658.63 8.9 658.83 7.78 659.03 6.65 659.03 4.85L659.03 4.85 659.03-13.85Q659.03-16.75 658.96-18.6 658.88-20.45 658.68-21.15L658.68-21.15Q658.43-22.35 657.53-22.78 656.63-23.2 654.13-23.2L654.13-23.2 654.13-24.9 663.73-26.8ZM665.23-21.45L665.23-21.45Q664.58-20.45 664.26-19.07 663.93-17.7 663.93-15.5L663.93-15.5 663.93-11.6Q663.93-10.25 664.01-9.28 664.08-8.3 664.23-7.6 664.38-6.9 664.63-6.35 664.88-5.8 665.28-5.3L665.28-5.3Q666.43-3.7 668.03-2.83 669.63-1.95 671.38-1.95L671.38-1.95Q674.83-1.95 676.96-4.85 679.08-7.75 679.08-13L679.08-13Q679.08-15.6 678.51-17.73 677.93-19.85 676.88-21.38 675.83-22.9 674.36-23.75 672.88-24.6 671.08-24.6L671.08-24.6Q669.28-24.6 667.76-23.78 666.23-22.95 665.23-21.45ZM704.63-10.85L704.63-14.8Q701.78-13.7 699.81-12.65 697.83-11.6 696.63-10.55 695.43-9.5 694.91-8.45 694.38-7.4 694.38-6.3L694.38-6.3Q694.38-4.65 695.48-3.6 696.58-2.55 698.38-2.55L698.38-2.55Q699.68-2.55 700.81-3.2 701.93-3.85 702.78-4.98 703.63-6.1 704.13-7.63 704.63-9.15 704.63-10.85L704.63-10.85ZM697.43-13.8L704.63-16.95 704.63-19Q704.63-25.1 699.43-25.1L699.43-25.1Q698.58-25.1 697.98-24.95 697.38-24.8 696.98-24.45 696.58-24.1 696.26-23.45 695.93-22.8 695.63-21.85L695.63-21.85Q695.08-20.4 694.56-19.93 694.03-19.45 693.03-19.45L693.03-19.45Q690.53-19.45 690.53-21.95L690.53-21.95Q690.53-24.35 693.08-25.68 695.63-27 700.33-27L700.33-27Q705.33-27 707.43-25.23 709.53-23.45 709.53-19.2L709.53-19.2 709.53-8Q709.53-2.3 711.78-2.3L711.78-2.3Q712.48-2.3 713.13-2.48 713.78-2.65 714.23-3.4L714.23-3.4 714.93-2.2Q714.33-1.05 712.73-0.28 711.13 0.5 709.38 0.5L709.38 0.5Q707.18 0.5 706.11-0.9 705.03-2.3 705.03-4.85L705.03-4.85 704.78-4.85Q703.48-2.4 701.18-0.98 698.88 0.45 696.08 0.45L696.08 0.45Q692.93 0.45 691.13-1.15 689.33-2.75 689.33-5.45L689.33-5.45Q689.33-6.65 689.76-7.75 690.18-8.85 691.13-9.85 692.08-10.85 693.63-11.83 695.18-12.8 697.43-13.8L697.43-13.8ZM725.98-9.65L725.98-7.95Q725.98-5.9 726.08-4.7 726.18-3.5 726.6-2.88 727.03-2.25 727.83-2.05 728.63-1.85 730.08-1.75L730.08-1.75 730.08 0 716.78 0 716.78-1.75Q718.23-1.8 719.08-2.02 719.93-2.25 720.38-2.85 720.83-3.45 720.95-4.58 721.08-5.7 721.08-7.6L721.08-7.6 721.08-13.45Q721.08-16.85 721-18.75 720.93-20.65 720.5-21.55 720.08-22.45 719.18-22.63 718.28-22.8 716.68-22.8L716.68-22.8 716.68-24.55 725.43-26.45 726.13-20.25 726.33-20.25Q726.98-21.75 727.95-23 728.93-24.25 730.08-25.13 731.23-26 732.48-26.5 733.73-27 735.03-27L735.03-27Q736.63-27 737.55-26.23 738.48-25.45 738.48-24.15L738.48-24.15Q738.48-22.95 737.73-22.28 736.98-21.6 735.58-21.6L735.58-21.6Q734.78-21.6 734.23-21.8 733.68-22 733.25-22.23 732.83-22.45 732.45-22.65 732.08-22.85 731.63-22.85L731.63-22.85Q730.28-22.85 728.93-21.13 727.58-19.4 726.83-16.75L726.83-16.75Q726.43-15.3 726.2-13.48 725.98-11.65 725.98-9.65L725.98-9.65ZM756.18-10.85L756.18-14.8Q753.33-13.7 751.35-12.65 749.38-11.6 748.18-10.55 746.98-9.5 746.45-8.45 745.93-7.4 745.93-6.3L745.93-6.3Q745.93-4.65 747.03-3.6 748.13-2.55 749.93-2.55L749.93-2.55Q751.23-2.55 752.35-3.2 753.48-3.85 754.33-4.98 755.18-6.1 755.68-7.63 756.18-9.15 756.18-10.85L756.18-10.85ZM748.98-13.8L756.18-16.95 756.18-19Q756.18-25.1 750.98-25.1L750.98-25.1Q750.13-25.1 749.53-24.95 748.93-24.8 748.53-24.45 748.13-24.1 747.8-23.45 747.48-22.8 747.18-21.85L747.18-21.85Q746.63-20.4 746.1-19.93 745.58-19.45 744.58-19.45L744.58-19.45Q742.08-19.45 742.08-21.95L742.08-21.95Q742.08-24.35 744.63-25.68 747.18-27 751.88-27L751.88-27Q756.88-27 758.98-25.23 761.08-23.45 761.08-19.2L761.08-19.2 761.08-8Q761.08-2.3 763.33-2.3L763.33-2.3Q764.03-2.3 764.68-2.48 765.33-2.65 765.78-3.4L765.78-3.4 766.48-2.2Q765.88-1.05 764.28-0.28 762.68 0.5 760.93 0.5L760.93 0.5Q758.73 0.5 757.65-0.9 756.58-2.3 756.58-4.85L756.58-4.85 756.33-4.85Q755.03-2.4 752.73-0.98 750.43 0.45 747.63 0.45L747.63 0.45Q744.48 0.45 742.68-1.15 740.88-2.75 740.88-5.45L740.88-5.45Q740.88-6.65 741.3-7.75 741.73-8.85 742.68-9.85 743.63-10.85 745.18-11.83 746.73-12.8 748.98-13.8L748.98-13.8ZM785.22-23.35L782.22-23.35 782.22-25.2Q784.87-26.75 786.37-28.3 787.87-29.85 788.67-32L788.67-32 790.12-32 790.12-25.7 796.82-25.7 796.82-23.35 790.12-23.35 790.12-8.15Q790.12-6.4 790.3-5.2 790.47-4 790.87-3.28 791.27-2.55 791.92-2.25 792.57-1.95 793.57-1.95L793.57-1.95Q794.82-1.95 795.7-2.48 796.57-3 797.42-4.25L797.42-4.25 798.67-3.3Q797.97-1.45 796.25-0.48 794.52 0.5 791.97 0.5L791.97 0.5Q788.67 0.5 786.95-1.07 785.22-2.65 785.22-5.6L785.22-5.6 785.22-23.35ZM822.27-13.6L822.27-18.5Q822.27-20.55 822.17-21.73 822.07-22.9 821.64-23.53 821.22-24.15 820.39-24.38 819.57-24.6 818.12-24.75L818.12-24.75 818.12-26.5 827.17-26.5 827.17-11.15Q827.17-8.3 827.24-6.5 827.32-4.7 827.47-3.8L827.47-3.8Q827.57-3.15 827.79-2.78 828.02-2.4 828.47-2.18 828.92-1.95 829.64-1.88 830.37-1.8 831.52-1.8L831.52-1.8 831.52-0.05 823.27 0.55 822.72-5.45 822.52-5.45Q820.62-2.35 818.14-0.93 815.67 0.5 812.97 0.5L812.97 0.5Q810.87 0.5 808.89-0.3 806.92-1.1 805.92-2.45L805.92-2.45Q805.07-3.55 804.69-5.5 804.32-7.45 804.32-10.55L804.32-10.55 804.32-18.5Q804.32-20.55 804.22-21.73 804.12-22.9 803.69-23.53 803.27-24.15 802.44-24.38 801.62-24.6 800.17-24.75L800.17-24.75 800.17-26.5 809.22-26.5 809.22-12.85Q809.22-7.4 810.49-4.95 811.77-2.5 814.57-2.5L814.57-2.5Q818.97-2.5 821.42-8.25L821.42-8.25Q821.67-8.85 821.82-9.35 821.97-9.85 822.07-10.45 822.17-11.05 822.22-11.8 822.27-12.55 822.27-13.6L822.27-13.6ZM858.01-14.35L858.01-8Q858.01-5.9 858.11-4.7 858.21-3.5 858.64-2.88 859.06-2.25 859.86-2.05 860.66-1.85 862.11-1.75L862.11-1.75 862.11 0 848.81 0 848.81-1.75Q850.26-1.85 851.11-2.05 851.96-2.25 852.41-2.85 852.86-3.45 852.99-4.58 853.11-5.7 853.11-7.6L853.11-7.6 853.11-14Q853.11-16.85 853.04-18.75 852.96-20.65 852.76-21.35L852.76-21.35Q852.61-22 852.41-22.38 852.21-22.75 851.76-22.98 851.31-23.2 850.59-23.28 849.86-23.35 848.71-23.35L848.71-23.35 848.71-25.1 856.86-27 857.51-22 857.76-22Q860.01-24.55 862.49-25.78 864.96-27 867.96-27L867.96-27Q871.11-27 873.26-25.73 875.41-24.45 876.26-22.05L876.26-22.05 876.46-22.05Q878.31-24.4 880.96-25.7 883.61-27 886.61-27L886.61-27Q888.96-27 890.89-26.23 892.81-25.45 893.81-24.1L893.81-24.1Q894.71-22.95 895.09-21.08 895.46-19.2 895.46-15.95L895.46-15.95 895.46-8Q895.46-5.95 895.59-4.75 895.71-3.55 896.11-2.9 896.51-2.25 897.34-2.05 898.16-1.85 899.61-1.75L899.61-1.75 899.61 0 886.31 0 886.31-1.75Q887.71-1.8 888.56-2.02 889.41-2.25 889.86-2.88 890.31-3.5 890.44-4.6 890.56-5.7 890.56-7.6L890.56-7.6 890.56-13.9Q890.56-16.75 890.26-18.73 889.96-20.7 889.26-21.93 888.56-23.15 887.44-23.7 886.31-24.25 884.71-24.25L884.71-24.25Q882.51-24.25 880.59-23.03 878.66-21.8 877.56-19.75L877.56-19.75Q877.31-19.25 877.14-18.78 876.96-18.3 876.86-17.73 876.76-17.15 876.74-16.35 876.71-15.55 876.71-14.35L876.71-14.35 876.71-8Q876.71-5.95 876.81-4.75 876.91-3.55 877.34-2.9 877.76-2.25 878.61-2.05 879.46-1.85 880.91-1.75L880.91-1.75 880.91 0 867.61 0 867.61-1.75Q869.01-1.85 869.86-2.05 870.71-2.25 871.14-2.85 871.56-3.45 871.69-4.58 871.81-5.7 871.81-7.6L871.81-7.6 871.81-13.9Q871.81-16.8 871.51-18.78 871.21-20.75 870.54-21.98 869.86-23.2 868.76-23.73 867.66-24.25 866.06-24.25L866.06-24.25Q863.81-24.25 861.84-23.03 859.86-21.8 858.86-19.75L858.86-19.75Q858.61-19.25 858.44-18.78 858.26-18.3 858.16-17.73 858.06-17.15 858.04-16.35 858.01-15.55 858.01-14.35L858.01-14.35ZM916.86-27L916.86-27Q919.71-27 922.26-25.98 924.81-24.95 926.74-23.15 928.66-21.35 929.79-18.88 930.91-16.4 930.91-13.45L930.91-13.45Q930.91-10.4 929.79-7.85 928.66-5.3 926.74-3.45 924.81-1.6 922.26-0.55 919.71 0.5 916.86 0.5L916.86 0.5Q914.06 0.5 911.54-0.53 909.01-1.55 907.11-3.4 905.21-5.25 904.11-7.83 903.01-10.4 903.01-13.45L903.01-13.45Q903.01-16.4 904.11-18.9 905.21-21.4 907.11-23.2 909.01-25 911.54-26 914.06-27 916.86-27ZM916.86-24.6L916.86-24.6Q915.01-24.6 913.49-23.8 911.96-23 910.89-21.53 909.81-20.05 909.24-17.98 908.66-15.9 908.66-13.4L908.66-13.4Q908.66-10.8 909.24-8.7 909.81-6.6 910.89-5.13 911.96-3.65 913.46-2.85 914.96-2.05 916.86-2.05L916.86-2.05Q918.76-2.05 920.31-2.85 921.86-3.65 922.96-5.15 924.06-6.65 924.66-8.75 925.26-10.85 925.26-13.4L925.26-13.4Q925.26-15.9 924.66-17.95 924.06-20 922.96-21.48 921.86-22.95 920.31-23.78 918.76-24.6 916.86-24.6ZM949.56-27L949.56-27Q952.41-27 954.96-25.98 957.51-24.95 959.43-23.15 961.36-21.35 962.48-18.88 963.61-16.4 963.61-13.45L963.61-13.45Q963.61-10.4 962.48-7.85 961.36-5.3 959.43-3.45 957.51-1.6 954.96-0.55 952.41 0.5 949.56 0.5L949.56 0.5Q946.76 0.5 944.23-0.53 941.71-1.55 939.81-3.4 937.91-5.25 936.81-7.83 935.71-10.4 935.71-13.45L935.71-13.45Q935.71-16.4 936.81-18.9 937.91-21.4 939.81-23.2 941.71-25 944.23-26 946.76-27 949.56-27ZM949.56-24.6L949.56-24.6Q947.71-24.6 946.18-23.8 944.66-23 943.58-21.53 942.51-20.05 941.93-17.98 941.36-15.9 941.36-13.4L941.36-13.4Q941.36-10.8 941.93-8.7 942.51-6.6 943.58-5.13 944.66-3.65 946.16-2.85 947.66-2.05 949.56-2.05L949.56-2.05Q951.46-2.05 953.01-2.85 954.56-3.65 955.66-5.15 956.76-6.65 957.36-8.75 957.96-10.85 957.96-13.4L957.96-13.4Q957.96-15.9 957.36-17.95 956.76-20 955.66-21.48 954.56-22.95 953.01-23.78 951.46-24.6 949.56-24.6ZM990.21 0.5L990.21-4.2 990.01-4.2Q988.21-1.65 986.18-0.58 984.16 0.5 981.41 0.5L981.41 0.5Q978.56 0.5 976.18-0.53 973.81-1.55 972.08-3.38 970.36-5.2 969.38-7.75 968.41-10.3 968.41-13.3L968.41-13.3Q968.41-16.25 969.38-18.78 970.36-21.3 972.08-23.13 973.81-24.95 976.21-25.98 978.61-27 981.41-27L981.41-27Q983.81-27 985.68-26.2 987.56-25.4 989.31-23.65L989.31-23.65 989.31-28.75Q989.31-31.6 989.23-33.5 989.16-35.4 989.01-36.1L989.01-36.1Q988.76-37.2 987.61-37.65 986.46-38.1 983.86-38.1L983.86-38.1 983.86-39.6 994.11-41.5 994.11-12.65Q994.11-9.2 994.16-6.98 994.21-4.75 994.46-3.8L994.46-3.8Q994.61-3.2 994.83-2.8 995.06-2.4 995.48-2.18 995.91-1.95 996.63-1.85 997.36-1.75 998.51-1.75L998.51-1.75 998.51-0.05 990.21 0.5ZM989.21-11.95L989.21-15.25Q989.21-17.85 988.93-19.2 988.66-20.55 987.86-21.55L987.86-21.55Q986.71-23.05 984.93-23.83 983.16-24.6 981.41-24.6L981.41-24.6Q977.81-24.6 975.93-21.63 974.06-18.65 974.06-13.55L974.06-13.55Q974.06-10.9 974.53-8.75 975.01-6.6 975.93-5.08 976.86-3.55 978.23-2.73 979.61-1.9 981.41-1.9L981.41-1.9Q982.31-1.9 983.23-2.1 984.16-2.3 985.03-2.73 985.91-3.15 986.66-3.73 987.41-4.3 987.91-5.05L987.91-5.05Q988.61-6.15 988.91-7.7 989.21-9.25 989.21-11.95L989.21-11.95ZM1004.2-2.75L1004.2-2.75Q1004.2-4.15 1005.15-5.1 1006.1-6.05 1007.45-6.05L1007.45-6.05Q1008.85-6.05 1009.8-5.1 1010.75-4.15 1010.75-2.75L1010.75-2.75Q1010.75-1.4 1009.8-0.45 1008.85 0.5 1007.45 0.5L1007.45 0.5Q1006.1 0.5 1005.15-0.45 1004.2-1.4 1004.2-2.75ZM1008.65-10.35L1006.25-10.35Q1006.25-14.35 1006.18-17.15 1006.1-19.95 1005.93-22.05 1005.75-24.15 1005.5-25.8 1005.25-27.45 1004.95-29.2L1004.95-29.2Q1004.7-30.6 1004.55-31.53 1004.4-32.45 1004.33-33.13 1004.25-33.8 1004.23-34.38 1004.2-34.95 1004.2-35.7L1004.2-35.7Q1004.2-37.05 1005.08-38.02 1005.95-39 1007.45-39L1007.45-39Q1008.95-39 1009.83-38.02 1010.7-37.05 1010.7-35.7L1010.7-35.7Q1010.7-35 1010.7-34.43 1010.7-33.85 1010.63-33.15 1010.55-32.45 1010.4-31.48 1010.25-30.5 1009.95-29L1009.95-29Q1009.65-27.35 1009.4-25.73 1009.15-24.1 1009-22.03 1008.85-19.95 1008.75-17.15 1008.65-14.35 1008.65-10.35L1008.65-10.35Z" opacity="1" transform="matrix(1,0,0,1,0,0)" fill="#e8772e" class="undefined-text-1" data-fill-palette-color="secondary" id="text-1"></path></svg></g></svg></g></svg></g></svg></g></svg></g></svg></g></svg></g><g><path d="M245.816 0c68.262 0 123.6 55.338 123.6 123.6 0 68.262-55.338 123.6-123.6 123.6-44.867 0-84.15-23.906-105.807-59.675l4.131 0c21.259 33.742 58.849 56.16 101.676 56.16 66.321 0 120.085-53.764 120.085-120.085 0-66.321-53.764-120.085-120.085-120.085-42.826 0-80.417 22.419-101.676 56.16l-4.131 0c21.657-35.769 60.94-59.675 105.807-59.675z" fill="#e8772e" stroke="transparent" data-fill-palette-color="tertiary"></path></g></svg></g><defs></defs></svg><rect width="395.52" height="247.2" fill="none" stroke="none" visibility="hidden"></rect></g></svg></g></svg>