<svg xmlns="http://www.w3.org/2000/svg" version="1.1" xmlns:xlink="http://www.w3.org/1999/xlink" xmlns:svgjs="http://svgjs.dev/svgjs" width="128" height="128" viewBox="0 0 128 128"><g transform="matrix(0.8046875,0,0,0.8046875,12.333870967741937,12.333870967741937)"><svg viewBox="0 0 155 155" data-background-color="#ffffff" preserveAspectRatio="xMidYMid meet" height="128" width="128" xmlns="http://www.w3.org/2000/svg" xmlns:xlink="http://www.w3.org/1999/xlink"><g id="tight-bounds" transform="matrix(1,0,0,1,0.25,0.25)"><svg viewBox="0 0 154.5 154.5" height="154.5" width="154.5"><g><svg></svg></g><g><svg viewBox="0 0 154.5 154.5" height="154.5" width="154.5"><g transform="matrix(1,0,0,1,58.372059167079215,47.746371)"><svg viewBox="0 0 37.75588166584158 59.00725799999999" height="59.00725799999999" width="37.75588166584158"><g><svg viewBox="0 0 37.75588166584158 59.00725799999999" height="59.00725799999999" width="37.75588166584158"><g><svg viewBox="0 0 37.75588166584158 59.00725799999999" height="59.00725799999999" width="37.75588166584158"><g id="textblocktransform"><svg viewBox="0 0 37.75588166584158 59.00725799999999" height="59.00725799999999" width="37.75588166584158" id="textblock"><g><svg viewBox="0 0 37.75588166584158 59.00725799999999" height="59.00725799999999" width="37.75588166584158"><g transform="matrix(1,0,0,1,0,0)"><svg width="37.75588166584158" viewBox="4.08 -26.37 25.240000000000002 39.46" height="59.00725799999999" data-palette-color="#e8772e"><path d="M9.99-18.46L9.99-4.76Q10.6-4.47 11.29-4.27 11.99-4.08 12.65-3.96 13.31-3.83 13.92-3.78 14.53-3.74 14.97-3.74L14.97-3.74Q16.85-3.74 18.36-4.48 19.87-5.22 20.95-6.51 22.02-7.79 22.6-9.5 23.17-11.21 23.17-13.16L23.17-13.16Q23.17-14.99 22.69-16.58 22.22-18.16 21.36-19.34 20.51-20.51 19.29-21.18 18.07-21.85 16.6-21.85L16.6-21.85Q14.84-21.85 13.15-20.91 11.45-19.97 9.99-18.46L9.99-18.46ZM8.81-25.88L9.69-21.53Q10.57-22.36 11.6-23.22 12.62-24.07 13.81-24.77 14.99-25.46 16.35-25.92 17.7-26.37 19.24-26.37L19.24-26.37Q21.61-26.37 23.47-25.33 25.34-24.29 26.64-22.57 27.93-20.85 28.63-18.62 29.32-16.38 29.32-14.01L29.32-14.01Q29.32-10.89 28.17-8.23 27.03-5.57 25.05-3.63 23.07-1.68 20.41-0.6 17.75 0.49 14.75 0.49L14.75 0.49Q14.16 0.49 13.51 0.45 12.87 0.42 12.24 0.34 11.62 0.27 11.04 0.16 10.45 0.05 9.99-0.1L9.99-0.1 9.99 13.09 4.08 13.09 4.08-25.88 8.81-25.88Z" opacity="1" transform="matrix(1,0,0,1,0,0)" fill="#e8772e" class="undefined-text-0" data-fill-palette-color="primary" id="text-0"></path></svg></g></svg></g></svg></g></svg></g></svg></g></svg></g><g><path d="M49.238 33.816A18.878 18.878 0 0 1 105.262 33.816L99.941 33.816A13.557 13.557 0 0 0 54.559 33.816L49.238 33.816M49.238 120.684A18.878 18.878 0 0 0 105.262 120.684L99.941 120.684A13.557 13.557 0 0 1 54.559 120.684L49.238 120.684" fill="#e8772e" stroke="transparent" data-fill-palette-color="tertiary"></path></g></svg></g><defs></defs></svg><rect width="154.5" height="154.5" fill="none" stroke="none" visibility="hidden"></rect></g></svg></g></svg>