<svg xmlns="http://www.w3.org/2000/svg" xmlns:xlink="http://www.w3.org/1999/xlink" width="500"
    zoomAndPan="magnify" viewBox="0 0 375 374.999991" height="500"
    preserveAspectRatio="xMidYMid meet" version="1.0">
    <defs>
        <g />
        <clipPath id="f1bd2aa343">
            <path
                d="M 14.304688 110.484375 L 161.304688 110.484375 L 161.304688 258.234375 L 14.304688 258.234375 Z M 14.304688 110.484375 "
                clip-rule="nonzero" />
        </clipPath>
    </defs>
    <rect x="-37.5" width="450" fill="#000000" y="-37.499999" height="180" fill-opacity="1" transform="translate(0, 130.213677)"/>
    <g clip-path="url(#f1bd2aa343)">
        <path fill="#ffffff"
            d="M 161.25 178.679688 C 161.253906 178.625 161.242188 178.574219 161.226562 178.527344 C 161.226562 178.523438 161.226562 178.519531 161.226562 178.515625 L 146.578125 139.988281 C 146.574219 139.980469 146.570312 139.980469 146.566406 139.972656 C 146.542969 139.917969 146.507812 139.863281 146.457031 139.820312 L 114.242188 114.15625 C 114.191406 114.113281 114.128906 114.085938 114.0625 114.074219 C 114.058594 114.074219 114.054688 114.070312 114.046875 114.070312 L 87.753906 110.488281 C 87.699219 110.484375 87.644531 110.488281 87.59375 110.5 L 75.0625 114.066406 L 74.707031 114.066406 C 74.632812 114.066406 74.566406 114.089844 74.507812 114.125 L 74.1875 114.316406 L 43.339844 123.097656 C 43.332031 123.101562 43.324219 123.109375 43.316406 123.113281 C 43.273438 123.128906 43.234375 123.148438 43.203125 123.179688 C 43.1875 123.191406 43.171875 123.199219 43.160156 123.214844 C 43.15625 123.222656 43.144531 123.226562 43.140625 123.234375 L 16.125 158.355469 C 16.117188 158.367188 16.117188 158.378906 16.109375 158.390625 C 16.097656 158.40625 16.085938 158.421875 16.082031 158.4375 C 16.074219 158.449219 16.074219 158.460938 16.070312 158.46875 C 16.0625 158.492188 16.058594 158.511719 16.058594 158.535156 C 16.054688 158.546875 16.046875 158.558594 16.046875 158.570312 L 14.347656 189.460938 C 14.34375 189.488281 14.347656 189.515625 14.351562 189.542969 L 16.839844 205.164062 C 16.84375 205.183594 16.855469 205.203125 16.859375 205.222656 C 16.863281 205.234375 16.863281 205.25 16.871094 205.261719 C 16.871094 205.265625 16.875 205.265625 16.875 205.269531 C 16.878906 205.273438 16.878906 205.277344 16.878906 205.28125 L 29.457031 229.273438 C 29.476562 229.316406 29.507812 229.355469 29.542969 229.386719 L 44.292969 242.445312 C 44.316406 242.472656 44.34375 242.496094 44.371094 242.515625 L 61.429688 254.03125 C 61.476562 254.0625 61.53125 254.082031 61.585938 254.089844 L 88.347656 258.257812 L 88.351562 258.261719 C 88.355469 258.261719 88.355469 258.261719 88.355469 258.261719 C 88.375 258.265625 88.394531 258.265625 88.414062 258.265625 C 88.414062 258.265625 88.414062 258.265625 88.417969 258.265625 C 88.441406 258.265625 88.46875 258.261719 88.496094 258.257812 C 88.496094 258.257812 88.5 258.257812 88.5 258.257812 C 88.5 258.257812 88.5 258.257812 88.5 258.253906 C 88.503906 258.253906 88.503906 258.253906 88.507812 258.253906 C 88.507812 258.253906 88.511719 258.253906 88.511719 258.253906 C 88.515625 258.253906 88.515625 258.25 88.515625 258.25 C 88.515625 258.253906 88.515625 258.25 88.519531 258.25 C 88.519531 258.25 88.519531 258.25 88.523438 258.25 L 132.25 245.449219 C 132.269531 245.445312 132.277344 245.429688 132.292969 245.421875 C 132.332031 245.402344 132.367188 245.378906 132.398438 245.347656 C 132.414062 245.332031 132.4375 245.328125 132.449219 245.3125 L 159.054688 210.171875 C 159.097656 210.113281 159.113281 210.050781 159.121094 209.984375 C 159.125 209.976562 159.128906 209.972656 159.132812 209.964844 Z M 158.382812 209.632812 L 146.875 212.546875 L 160.328125 180.90625 Z M 111.695312 205.148438 L 69.296875 190.207031 L 101.273438 167.144531 Z M 101.273438 165.898438 L 69.386719 145.007812 L 110.847656 133.128906 Z M 100.820312 166.523438 L 68.859375 189.574219 L 68.859375 145.582031 Z M 68.085938 189.707031 L 31.816406 171.875 L 68.085938 145.625 Z M 75.941406 232.457031 L 41.367188 213.050781 L 68.214844 191.039062 Z M 68.972656 190.914062 L 111.460938 205.886719 L 76.738281 232.507812 Z M 111.925781 206.5 L 114.167969 238.335938 L 77.429688 232.945312 Z M 112.421875 204.882812 L 102.019531 166.945312 L 137.394531 170.488281 Z M 137.886719 171.121094 L 145.730469 212.609375 L 112.917969 205.507812 Z M 146.359375 211.789062 L 138.605469 170.769531 L 160.351562 178.875 Z M 137.941406 169.28125 L 112.300781 133.152344 L 145.742188 140.417969 Z M 137.292969 169.703125 L 102 166.167969 L 111.558594 133.4375 Z M 68.976562 144.324219 L 74.984375 115.019531 L 110.347656 132.46875 Z M 68.183594 144.367188 L 41.054688 135.28125 L 74.152344 115.242188 Z M 67.640625 144.996094 L 31.699219 171.007812 L 40.417969 135.878906 Z M 30.851562 171.21875 L 16.992188 158.582031 L 39.441406 136.609375 Z M 39.800781 135.179688 L 20.078125 154.484375 L 42.546875 125.269531 Z M 30.609375 172.042969 L 17.574219 203.253906 L 16.832031 159.476562 Z M 30.96875 173.1875 L 40.152344 212.519531 L 17.734375 204.871094 Z M 31.632812 172.644531 L 67.765625 190.40625 L 40.917969 212.417969 Z M 75.472656 233.078125 L 44.90625 241.699219 L 41.167969 213.824219 Z M 76.265625 233.65625 L 87.65625 257.199219 L 45.847656 242.234375 Z M 88.558594 257.292969 L 77.136719 233.683594 L 113.59375 239.03125 Z M 114.917969 238.019531 L 112.679688 206.246094 L 145.351562 213.316406 Z M 145.222656 214.414062 L 131.9375 244.59375 L 115.359375 238.65625 Z M 146.496094 213.4375 L 157.777344 210.582031 L 133.820312 242.226562 Z M 138.5625 169.929688 L 146.28125 141.371094 L 160.203125 177.996094 Z M 114.285156 115.175781 L 144.683594 139.398438 L 111.84375 132.265625 Z M 87.730469 111.265625 L 108.308594 114.066406 L 77.878906 114.066406 Z M 113.554688 114.839844 L 111.105469 131.984375 L 76.359375 114.839844 Z M 40.773438 134.550781 L 43.757812 123.78125 L 71.6875 115.832031 Z M 15.117188 189.460938 L 16.226562 169.292969 L 16.742188 199.660156 Z M 30.105469 228.851562 L 19.898438 209.382812 L 42.105469 239.480469 Z M 18.261719 205.867188 L 40.335938 213.398438 L 44 240.753906 Z M 47.332031 243.585938 L 84.457031 256.871094 L 61.789062 253.339844 Z M 114.644531 239.21875 L 130.898438 245.042969 L 90.425781 256.886719 Z M 114.644531 239.21875 "
            fill-opacity="1" fill-rule="nonzero" />
    </g>
    <g fill="#ffffff" fill-opacity="1">
        <g transform="translate(57.420101, 219.213684)">
            <g>
                <path
                    d="M 35.082031 -71.804688 L 8.820312 -71.804688 L 8.820312 0 L 19.285156 0 L 19.285156 -23.902344 L 35.082031 -23.902344 C 50.570312 -23.902344 58.367188 -35.800781 58.367188 -47.800781 C 58.367188 -59.800781 50.570312 -71.804688 35.082031 -71.804688 Z M 35.082031 -34.160156 L 19.285156 -34.160156 L 19.285156 -61.339844 L 35.082031 -61.339844 C 43.800781 -61.339844 48.109375 -54.570312 48.109375 -47.699219 C 48.109375 -40.929688 43.800781 -34.160156 35.082031 -34.160156 Z M 35.082031 -34.160156 " />
            </g>
        </g>
    </g>
    <g fill="#ffffff" fill-opacity="1">
        <g transform="translate(164.94272, 207.768639)">
            <g>
                <path
                    d="M 5.179688 0 L 11.945312 0 L 11.945312 -48.339844 L 5.179688 -48.339844 Z M 5.179688 0 " />
            </g>
        </g>
        <g transform="translate(182.068788, 207.768639)">
            <g>
                <path
                    d="M 43.988281 0 L 43.988281 -37.359375 L 37.222656 -37.359375 L 37.289062 -32.386719 C 33.976562 -36.875 28.382812 -37.980469 23.753906 -37.980469 C 11.117188 -37.980469 3.796875 -28.933594 3.796875 -18.851562 C 3.796875 -8.5625 10.84375 0.621094 23.894531 0.621094 C 28.519531 0.550781 34.527344 -0.964844 37.222656 -5.042969 L 37.222656 0 Z M 37.222656 -18.714844 C 37.222656 -9.738281 29.96875 -5.386719 23.753906 -5.386719 C 15.46875 -5.386719 10.566406 -11.808594 10.566406 -18.851562 C 10.566406 -26.242188 15.539062 -32.042969 23.753906 -32.042969 C 30.109375 -32.042969 37.222656 -27.621094 37.222656 -18.714844 Z M 37.222656 -18.714844 " />
            </g>
        </g>
    </g>
    <g fill="#ffffff" fill-opacity="1">
        <g transform="translate(230.546602, 207.768639)">
            <g>
                <path
                    d="M 11.945312 -32.734375 L 11.945312 -37.359375 L 5.179688 -37.359375 L 5.179688 0 L 11.945312 0 L 11.945312 -20.300781 C 11.945312 -26.792969 15.8125 -31.902344 22.925781 -31.902344 C 31.074219 -31.902344 32.941406 -27.070312 32.941406 -20.027344 L 32.941406 0 L 39.636719 0 L 39.636719 -20.09375 C 39.636719 -30.800781 34.804688 -37.914062 23.410156 -37.914062 C 18.714844 -37.914062 14.710938 -36.738281 11.945312 -32.734375 Z M 11.945312 -32.734375 " />
            </g>
        </g>
    </g>
    <g fill="#ffffff" fill-opacity="1">
        <g transform="translate(275.295351, 207.768639)">
            <g>
                <path
                    d="M 4.765625 -46.957031 C 4.765625 -44.335938 6.90625 -43.023438 8.976562 -43.023438 C 11.117188 -43.023438 13.191406 -44.335938 13.191406 -46.957031 C 13.191406 -49.582031 11.117188 -50.824219 9.046875 -50.824219 C 6.90625 -50.824219 4.765625 -49.515625 4.765625 -46.957031 Z M 5.59375 -37.773438 L 12.359375 -37.773438 L 12.359375 0 L 5.59375 0 Z M 5.59375 -37.773438 " />
            </g>
        </g>
    </g>
    <g fill="#ffffff" fill-opacity="1">
        <g transform="translate(293.871603, 207.768639)">
            <g>
                <path
                    d="M 7.941406 0 L 14.710938 0 L 14.710938 -31.765625 L 22.304688 -31.765625 L 22.304688 -37.636719 L 14.710938 -37.636719 C 14.710938 -42.261719 17.125 -43.4375 20.71875 -43.4375 C 21.476562 -43.4375 22.304688 -43.367188 23.132812 -43.296875 L 23.132812 -48.960938 C 22.167969 -49.03125 21.269531 -49.097656 20.441406 -49.097656 C 12.292969 -49.097656 7.941406 -45.785156 7.941406 -37.636719 L 2.210938 -37.636719 L 2.210938 -31.765625 L 7.941406 -31.765625 Z M 7.941406 0 " />
            </g>
        </g>
    </g>
    <g fill="#ffffff" fill-opacity="1">
        <g transform="translate(318.110502, 207.768639)">
            <g>
                <path
                    d="M 30.316406 -37.914062 L 23.894531 -21.269531 L 19.542969 -9.117188 L 15.332031 -21.339844 L 8.5625 -37.914062 L 1.382812 -37.914062 L 15.953125 -1.933594 L 10.703125 11.53125 L 17.886719 11.53125 L 37.496094 -37.914062 Z M 30.316406 -37.914062 " />
            </g>
        </g>
    </g>
</svg>