<svg width="456" height="198" viewBox="0 0 456 198" fill="none" xmlns="http://www.w3.org/2000/svg">
<mask id="mask0_101_68" style="mask-type:luminance" maskUnits="userSpaceOnUse" x="0" y="0" width="197" height="198">
<path d="M0.369751 0.223969H196.193V197.047H0.369751V0.223969Z" fill="white"/>
</mask>
<g mask="url(#mask0_101_68)">
<path d="M196.12 91.0677C196.125 90.9948 196.109 90.9271 196.088 90.8646C196.088 90.8594 196.088 90.8542 196.088 90.849L176.573 39.5208C176.568 39.5156 176.562 39.5104 176.557 39.5052C176.526 39.4323 176.484 39.3594 176.411 39.3021L133.5 5.11459C133.432 5.0573 133.349 5.02084 133.26 5.00522C133.25 5.00522 133.245 5.00001 133.24 5.00001L98.2083 0.229177C98.1406 0.21876 98.0676 0.223969 97.9999 0.244802L81.3072 4.9948H80.8333C80.7343 4.9948 80.6458 5.02084 80.5676 5.07293C80.5676 5.07293 80.5676 5.07293 80.5624 5.07293L80.1406 5.32814L39.0468 17.0261C39.0312 17.0313 39.026 17.0417 39.0156 17.0469C38.9583 17.0677 38.9062 17.0938 38.8645 17.1354C38.8437 17.1511 38.8229 17.1615 38.8072 17.1823C38.802 17.1927 38.7864 17.1927 38.7812 17.2031L2.79161 63.9948C2.78119 64.0104 2.78119 64.0261 2.77077 64.0417C2.76036 64.0625 2.74473 64.0781 2.73431 64.1042C2.72911 64.1146 2.7239 64.1302 2.71869 64.1458C2.70827 64.1719 2.70827 64.2031 2.70306 64.2292C2.69786 64.25 2.69265 64.2604 2.68744 64.2813L0.421814 105.427C0.421814 105.464 0.421814 105.5 0.427022 105.536L3.74473 126.349C3.74994 126.375 3.76556 126.401 3.77077 126.427C3.77598 126.443 3.77598 126.464 3.7864 126.479C3.7864 126.484 3.79161 126.484 3.79161 126.49C3.79681 126.495 3.79681 126.5 3.79681 126.505L20.552 158.469C20.5781 158.526 20.6197 158.573 20.6666 158.615L40.3176 176.016C40.3489 176.052 40.3854 176.083 40.4218 176.109L63.1458 191.448C63.2083 191.49 63.276 191.516 63.3541 191.526L99.0052 197.078H99.0104C99.0104 197.078 99.0104 197.083 99.0156 197.083C99.0416 197.083 99.0677 197.089 99.0937 197.089C99.1302 197.089 99.1666 197.083 99.1979 197.078C99.1979 197.078 99.2031 197.078 99.2031 197.073C99.2031 197.073 99.2031 197.073 99.2083 197.073C99.2083 197.073 99.2135 197.073 99.2187 197.073H99.2239V197.068H99.2291C99.2343 197.068 99.2343 197.068 99.2343 197.068L157.49 180.016C157.51 180.01 157.521 179.99 157.542 179.979C157.599 179.953 157.641 179.922 157.687 179.875C157.708 179.859 157.734 179.854 157.755 179.833L193.193 133.021C193.25 132.943 193.276 132.859 193.286 132.771C193.286 132.76 193.297 132.755 193.297 132.745L196.12 91.0677ZM192.302 132.302L176.974 136.182L194.891 94.0313L192.302 132.302ZM130.104 126.328L73.6249 106.427L116.224 75.7031L130.104 126.328ZM116.224 74.0417L73.7447 46.2136L128.974 30.3906L116.224 74.0417ZM115.615 74.8698L73.0416 105.583V46.9792L115.615 74.8698ZM72.0156 105.76L23.6926 82.0052L72.0156 47.0365V105.76ZM82.4791 162.708L36.4166 136.854L72.1822 107.531L82.4791 162.708ZM73.1926 107.365L129.792 127.313L83.5364 162.776L73.1926 107.365ZM130.411 128.13L133.396 170.536L84.4583 163.359L130.411 128.13ZM131.073 125.974L117.213 75.4375L164.338 80.1563L131.073 125.974ZM164.995 80.9948L175.448 136.266L131.734 126.807L164.995 80.9948ZM176.281 135.177L165.953 80.5313L194.922 91.3281L176.281 135.177ZM165.068 78.5469L130.917 30.4219L175.458 40.0938L165.068 78.5469ZM164.208 79.1094L117.187 74.4011L129.927 30.7969L164.208 79.1094ZM73.1979 45.3021L81.1979 6.26564L128.312 29.5104L73.1979 45.3021ZM72.1406 45.3594L36.0051 33.2552L80.0937 6.5573L72.1406 45.3594ZM71.4166 46.1979L23.5416 80.849L35.151 34.0521L71.4166 46.1979ZM22.4114 81.1302L3.94786 64.2969L33.8541 35.0261L22.4114 81.1302ZM34.3281 33.1198L8.05723 58.8333L37.9895 19.9219L34.3281 33.1198ZM22.0885 82.224L4.7239 123.807L3.73431 65.4896L22.0885 82.224ZM22.5624 83.75L34.7968 136.151L4.93744 125.958L22.5624 83.75ZM23.4479 83.0261L71.5833 106.693L35.8229 136.016L23.4479 83.0261ZM81.8541 163.531L41.1301 175.021L36.1562 137.885L81.8541 163.531ZM82.9114 164.302L98.0833 195.667L42.3906 175.734L82.9114 164.302ZM99.2864 195.792L84.0676 164.344L132.635 171.464L99.2864 195.792ZM134.396 170.12L131.422 127.786L174.943 137.208L134.396 170.12ZM174.771 138.672L157.073 178.875L134.984 170.964L174.771 138.672ZM176.463 137.37L191.495 133.568L159.583 175.719L176.463 137.37ZM165.896 79.4167L176.177 41.3698L194.724 90.1563L165.896 79.4167ZM133.552 6.47397L174.052 38.7396L130.302 29.2344L133.552 6.47397ZM98.177 1.26043L125.594 4.9948H85.0572L98.177 1.26043ZM132.583 6.02605L129.323 28.8646L83.0312 6.02605H132.583ZM35.6301 32.2813L39.6041 17.9375L76.8072 7.34376L35.6301 32.2813ZM1.44786 105.432L2.92702 78.5625L3.61452 119.016L1.44786 105.432ZM21.4166 157.906L7.81765 131.969L37.401 172.063L21.4166 157.906ZM5.64056 127.286L35.0416 137.318L39.927 173.76L5.64056 127.286ZM44.3645 177.531L93.8177 195.229L63.6197 190.526L44.3645 177.531ZM134.036 171.714L155.687 179.474L101.771 195.255L134.036 171.714Z" fill="#2A284D"/>
</g>
<path d="M104.538 49.4139H69.5535V145.065H83.491V113.226H104.538C125.168 113.226 135.553 97.3775 135.553 81.3879C135.553 65.3983 125.168 49.4139 104.538 49.4139ZM104.538 99.5598H83.491V63.3514H104.538C116.152 63.3514 121.892 72.3671 121.892 81.5233C121.892 90.5441 116.152 99.5598 104.538 99.5598Z" fill="#2A284D"/>
<path d="M207.939 129.819H216.955V65.4228H207.939V129.819Z" fill="#2A284D"/>
<path d="M282.452 129.819V80.0478H273.436L273.53 86.6728C269.113 80.6936 261.66 79.2249 255.499 79.2249C238.665 79.2249 228.91 91.2717 228.91 104.704C228.91 118.412 238.295 130.647 255.681 130.647C261.848 130.553 269.848 128.532 273.436 123.105V129.819H282.452ZM273.436 104.886C273.436 116.85 263.78 122.642 255.499 122.642C244.457 122.642 237.926 114.089 237.926 104.704C237.926 94.8603 244.551 87.1363 255.499 87.1363C263.962 87.1363 273.436 93.0217 273.436 104.886Z" fill="#2A284D"/>
<path d="M304.349 86.2144V80.0478H295.333V129.819H304.349V102.772C304.349 94.1259 309.5 87.3186 318.974 87.3186C329.828 87.3186 332.312 93.7561 332.312 103.142V129.819H341.234V103.048C341.234 88.7874 334.796 79.3134 319.619 79.3134C313.364 79.3134 308.026 80.8759 304.349 86.2144Z" fill="#2A284D"/>
<path d="M354.392 67.2613C354.392 70.7613 357.241 72.5061 360.002 72.5061C362.856 72.5061 365.616 70.7613 365.616 67.2613C365.616 63.7665 362.856 62.1103 360.095 62.1103C357.241 62.1103 354.392 63.8603 354.392 67.2613ZM355.496 79.5009H364.512V129.819H355.496V79.5009Z" fill="#2A284D"/>
<path d="M383.368 129.819H392.383V87.5009H402.503V79.6832H392.383C392.383 73.5165 395.602 71.954 400.388 71.954C401.399 71.954 402.503 72.0478 403.607 72.1415V64.5946C402.321 64.5061 401.123 64.4124 400.019 64.4124C389.164 64.4124 383.368 68.829 383.368 79.6832H375.732V87.5009H383.368V129.819Z" fill="#2A284D"/>
<path d="M445.464 79.3134L436.907 101.485L431.115 117.678L425.501 101.392L416.485 79.3134H406.918L426.329 127.24L419.339 145.183H428.907L455.032 79.3134H445.464Z" fill="#2A284D"/>
</svg>
