<svg xmlns="http://www.w3.org/2000/svg" xmlns:xlink="http://www.w3.org/1999/xlink" width="500" zoomAndPan="magnify" viewBox="0 0 375 374.999991" height="500" preserveAspectRatio="xMidYMid meet" version="1.0"><defs><g/><clipPath id="d0064eac39"><path d="M 113.914062 64.371094 L 260.914062 64.371094 L 260.914062 212.121094 L 113.914062 212.121094 Z M 113.914062 64.371094 " clip-rule="nonzero"/></clipPath></defs><rect x="-37.5" width="450" fill="#ffffff" y="-37.499999" height="449.999989" fill-opacity="1"/><rect x="-37.5" width="450" fill="#000000" y="-37.499999" height="449.999989" fill-opacity="1"/><g clip-path="url(#d0064eac39)"><path fill="#ffffff" d="M 260.859375 132.5625 C 260.863281 132.511719 260.855469 132.457031 260.835938 132.410156 C 260.835938 132.40625 260.839844 132.402344 260.835938 132.402344 L 246.1875 93.871094 C 246.183594 93.867188 246.179688 93.863281 246.175781 93.859375 C 246.152344 93.800781 246.121094 93.746094 246.066406 93.707031 L 213.851562 68.039062 C 213.800781 68 213.742188 67.96875 213.671875 67.957031 C 213.667969 67.957031 213.664062 67.957031 213.660156 67.957031 L 187.363281 64.375 C 187.3125 64.367188 187.257812 64.371094 187.207031 64.386719 L 174.671875 67.953125 L 174.316406 67.953125 C 174.246094 67.953125 174.175781 67.972656 174.117188 68.007812 L 173.796875 68.199219 L 142.949219 76.984375 C 142.941406 76.984375 142.933594 76.992188 142.925781 76.996094 C 142.882812 77.011719 142.847656 77.035156 142.8125 77.0625 C 142.796875 77.074219 142.785156 77.085938 142.773438 77.097656 C 142.765625 77.105469 142.757812 77.109375 142.75 77.117188 L 115.738281 112.242188 C 115.726562 112.25 115.726562 112.261719 115.71875 112.273438 C 115.710938 112.289062 115.699219 112.304688 115.691406 112.320312 C 115.6875 112.332031 115.683594 112.34375 115.679688 112.355469 C 115.675781 112.375 115.671875 112.394531 115.667969 112.417969 C 115.664062 112.429688 115.660156 112.441406 115.65625 112.453125 L 113.957031 143.34375 C 113.957031 143.371094 113.957031 143.398438 113.960938 143.425781 L 116.453125 159.046875 C 116.453125 159.070312 116.464844 159.085938 116.472656 159.105469 C 116.476562 159.121094 116.476562 159.132812 116.480469 159.144531 C 116.480469 159.148438 116.484375 159.152344 116.484375 159.15625 C 116.488281 159.160156 116.488281 159.164062 116.488281 159.167969 L 129.066406 183.160156 C 129.089844 183.203125 129.117188 183.238281 129.152344 183.269531 L 143.902344 196.332031 C 143.925781 196.359375 143.953125 196.382812 143.984375 196.402344 L 161.039062 207.914062 C 161.085938 207.945312 161.140625 207.96875 161.195312 207.976562 L 187.957031 212.144531 L 187.960938 212.144531 C 187.964844 212.144531 187.964844 212.144531 187.96875 212.144531 C 187.988281 212.148438 188.007812 212.148438 188.027344 212.148438 C 188.054688 212.148438 188.082031 212.148438 188.105469 212.140625 C 188.105469 212.140625 188.105469 212.140625 188.109375 212.140625 C 188.109375 212.140625 188.109375 212.140625 188.113281 212.140625 C 188.113281 212.140625 188.117188 212.140625 188.117188 212.136719 C 188.121094 212.140625 188.121094 212.136719 188.121094 212.136719 C 188.121094 212.136719 188.125 212.136719 188.125 212.136719 C 188.125 212.136719 188.128906 212.136719 188.128906 212.136719 C 188.128906 212.132812 188.128906 212.132812 188.132812 212.132812 L 231.863281 199.335938 C 231.878906 199.328125 231.886719 199.3125 231.902344 199.304688 C 231.945312 199.289062 231.976562 199.261719 232.011719 199.230469 C 232.023438 199.21875 232.046875 199.214844 232.058594 199.195312 L 258.664062 164.054688 C 258.707031 164 258.726562 163.933594 258.734375 163.871094 C 258.734375 163.863281 258.742188 163.855469 258.742188 163.847656 Z M 257.992188 163.515625 L 246.488281 166.429688 L 259.9375 134.789062 Z M 211.304688 159.035156 L 168.90625 144.09375 L 200.882812 121.027344 Z M 200.886719 119.785156 L 169 98.894531 L 210.457031 87.011719 Z M 200.429688 120.40625 L 168.46875 143.457031 L 168.46875 99.46875 Z M 167.699219 143.59375 L 131.425781 125.761719 L 167.699219 99.507812 Z M 175.554688 186.339844 L 140.976562 166.933594 L 167.824219 144.921875 Z M 168.585938 144.796875 L 211.070312 159.769531 L 176.347656 186.394531 Z M 211.539062 160.386719 L 213.777344 192.21875 L 177.042969 186.832031 Z M 212.03125 158.765625 L 201.628906 120.832031 L 237.003906 124.371094 Z M 237.496094 125.003906 L 245.339844 166.496094 L 212.53125 159.390625 Z M 245.96875 165.675781 L 238.214844 124.65625 L 259.964844 132.757812 Z M 237.550781 123.167969 L 211.914062 87.039062 L 245.351562 94.300781 Z M 236.90625 123.585938 L 201.609375 120.054688 L 211.171875 87.320312 Z M 168.589844 98.207031 L 174.59375 68.90625 L 209.957031 86.355469 Z M 167.792969 98.25 L 140.664062 89.164062 L 173.761719 69.125 Z M 167.25 98.882812 L 131.308594 124.894531 L 140.027344 89.765625 Z M 130.464844 125.101562 L 116.601562 112.464844 L 139.050781 90.492188 Z M 139.410156 89.0625 L 119.6875 108.367188 L 142.15625 79.15625 Z M 130.222656 125.925781 L 117.183594 157.140625 L 116.441406 113.363281 Z M 130.578125 127.074219 L 139.761719 166.40625 L 117.34375 158.753906 Z M 131.242188 126.527344 L 167.375 144.292969 L 140.53125 166.304688 Z M 175.082031 186.960938 L 144.515625 195.585938 L 140.78125 167.710938 Z M 175.875 187.539062 L 187.269531 211.082031 L 145.460938 196.121094 Z M 188.171875 211.179688 L 176.746094 187.566406 L 213.203125 192.917969 Z M 214.527344 191.90625 L 212.292969 160.128906 L 244.960938 167.203125 Z M 244.832031 168.300781 L 231.546875 198.480469 L 214.96875 192.539062 Z M 246.105469 167.324219 L 257.390625 164.464844 L 233.433594 196.109375 Z M 238.171875 123.816406 L 245.890625 95.253906 L 259.8125 131.878906 Z M 213.894531 69.058594 L 244.296875 93.28125 L 211.453125 86.148438 Z M 187.339844 65.148438 L 207.917969 67.953125 L 177.492188 67.953125 Z M 213.164062 68.722656 L 210.714844 85.867188 L 175.96875 68.722656 Z M 140.382812 88.433594 L 143.371094 77.664062 L 171.296875 69.714844 Z M 114.726562 143.34375 L 115.835938 123.175781 L 116.351562 153.542969 Z M 129.714844 182.738281 L 119.507812 163.269531 L 141.714844 193.367188 Z M 117.871094 159.75 L 139.945312 167.28125 L 143.613281 194.640625 Z M 146.941406 197.46875 L 184.066406 210.757812 L 161.398438 207.226562 Z M 214.257812 193.101562 L 230.507812 198.925781 L 190.039062 210.773438 Z M 214.257812 193.101562 " fill-opacity="1" fill-rule="nonzero"/></g><g fill="#ffffff" fill-opacity="1"><g transform="translate(116.648434, 272.441466)"><g><path d="M 14.363281 -29.398438 L 3.613281 -29.398438 L 3.613281 0 L 7.894531 0 L 7.894531 -9.785156 L 14.363281 -9.785156 C 20.707031 -9.785156 23.898438 -14.65625 23.898438 -19.570312 C 23.898438 -24.484375 20.707031 -29.398438 14.363281 -29.398438 Z M 14.363281 -13.984375 L 7.894531 -13.984375 L 7.894531 -25.117188 L 14.363281 -25.117188 C 17.933594 -25.117188 19.699219 -22.34375 19.699219 -19.53125 C 19.699219 -16.757812 17.933594 -13.984375 14.363281 -13.984375 Z M 14.363281 -13.984375 "/></g></g></g><g fill="#ffffff" fill-opacity="1"><g transform="translate(141.596427, 272.441466)"><g><path d="M 3.148438 0 L 7.265625 0 L 7.265625 -29.398438 L 3.148438 -29.398438 Z M 3.148438 0 "/></g></g><g transform="translate(152.012427, 272.441466)"><g><path d="M 26.753906 0 L 26.753906 -22.722656 L 22.636719 -22.722656 L 22.679688 -19.699219 C 20.664062 -22.429688 17.261719 -23.101562 14.449219 -23.101562 C 6.761719 -23.101562 2.308594 -17.597656 2.308594 -11.464844 C 2.308594 -5.207031 6.59375 0.378906 14.53125 0.378906 C 17.347656 0.335938 21 -0.589844 22.636719 -3.066406 L 22.636719 0 Z M 22.636719 -11.382812 C 22.636719 -5.921875 18.226562 -3.277344 14.449219 -3.277344 C 9.40625 -3.277344 6.425781 -7.183594 6.425781 -11.464844 C 6.425781 -15.960938 9.449219 -19.488281 14.449219 -19.488281 C 18.3125 -19.488281 22.636719 -16.800781 22.636719 -11.382812 Z M 22.636719 -11.382812 "/></g></g></g><g fill="#ffffff" fill-opacity="1"><g transform="translate(181.496422, 272.441466)"><g><path d="M 7.265625 -19.90625 L 7.265625 -22.722656 L 3.148438 -22.722656 L 3.148438 0 L 7.265625 0 L 7.265625 -12.347656 C 7.265625 -16.296875 9.617188 -19.402344 13.945312 -19.402344 C 18.898438 -19.402344 20.035156 -16.464844 20.035156 -12.179688 L 20.035156 0 L 24.109375 0 L 24.109375 -12.222656 C 24.109375 -18.730469 21.167969 -23.058594 14.238281 -23.058594 C 11.382812 -23.058594 8.945312 -22.34375 7.265625 -19.90625 Z M 7.265625 -19.90625 "/></g></g></g><g fill="#ffffff" fill-opacity="1"><g transform="translate(208.712416, 272.441466)"><g><path d="M 2.898438 -28.558594 C 2.898438 -26.964844 4.199219 -26.164062 5.460938 -26.164062 C 6.761719 -26.164062 8.023438 -26.964844 8.023438 -28.558594 C 8.023438 -30.15625 6.761719 -30.910156 5.503906 -30.910156 C 4.199219 -30.910156 2.898438 -30.113281 2.898438 -28.558594 Z M 3.402344 -22.972656 L 7.519531 -22.972656 L 7.519531 0 L 3.402344 0 Z M 3.402344 -22.972656 "/></g></g></g><g fill="#ffffff" fill-opacity="1"><g transform="translate(220.010411, 272.441466)"><g><path d="M 4.828125 0 L 8.945312 0 L 8.945312 -19.320312 L 13.566406 -19.320312 L 13.566406 -22.890625 L 8.945312 -22.890625 C 8.945312 -25.703125 10.414062 -26.417969 12.601562 -26.417969 C 13.0625 -26.417969 13.566406 -26.375 14.070312 -26.335938 L 14.070312 -29.777344 C 13.480469 -29.820312 12.9375 -29.863281 12.433594 -29.863281 C 7.476562 -29.863281 4.828125 -27.847656 4.828125 -22.890625 L 1.34375 -22.890625 L 1.34375 -19.320312 L 4.828125 -19.320312 Z M 4.828125 0 "/></g></g></g><g fill="#ffffff" fill-opacity="1"><g transform="translate(234.752404, 272.441466)"><g><path d="M 18.4375 -23.058594 L 14.53125 -12.9375 L 11.886719 -5.542969 L 9.324219 -12.976562 L 5.207031 -23.058594 L 0.839844 -23.058594 L 9.703125 -1.175781 L 6.511719 7.015625 L 10.878906 7.015625 L 22.804688 -23.058594 Z M 18.4375 -23.058594 "/></g></g></g><g fill="#ffffff" fill-opacity="1"><g transform="translate(136.27931, 307.212635)"><g><path d="M 10.1875 0 L 8.859375 0 L 8.84375 -6.40625 L 6.140625 -0.890625 L 5.1875 -0.890625 L 2.484375 -6.40625 L 2.484375 0 L 1.125 0 L 1.125 -8.578125 L 2.84375 -8.578125 L 5.671875 -2.875 L 8.484375 -8.578125 L 10.1875 -8.578125 Z M 10.1875 0 "/></g></g></g><g fill="#ffffff" fill-opacity="1"><g transform="translate(150.451666, 307.212635)"><g><path d="M 1.71875 -7.359375 C 2.59375 -8.191406 3.671875 -8.609375 4.953125 -8.609375 C 6.242188 -8.609375 7.320312 -8.191406 8.1875 -7.359375 C 9.0625 -6.535156 9.5 -5.507812 9.5 -4.28125 C 9.5 -3.0625 9.0625 -2.03125 8.1875 -1.1875 C 7.320312 -0.351562 6.242188 0.0625 4.953125 0.0625 C 3.671875 0.0625 2.59375 -0.351562 1.71875 -1.1875 C 0.851562 -2.03125 0.421875 -3.0625 0.421875 -4.28125 C 0.421875 -5.507812 0.851562 -6.535156 1.71875 -7.359375 Z M 4.96875 -7.3125 C 4.125 -7.3125 3.398438 -7.019531 2.796875 -6.4375 C 2.191406 -5.851562 1.890625 -5.132812 1.890625 -4.28125 C 1.890625 -3.4375 2.191406 -2.71875 2.796875 -2.125 C 3.410156 -1.53125 4.132812 -1.234375 4.96875 -1.234375 C 5.8125 -1.234375 6.53125 -1.53125 7.125 -2.125 C 7.726562 -2.71875 8.03125 -3.4375 8.03125 -4.28125 C 8.03125 -5.132812 7.726562 -5.851562 7.125 -6.4375 C 6.53125 -7.019531 5.8125 -7.3125 4.96875 -7.3125 Z M 4.96875 -7.3125 "/></g></g></g><g fill="#ffffff" fill-opacity="1"><g transform="translate(163.215724, 307.212635)"><g><path d="M 1.125 -8.578125 L 4.84375 -8.578125 C 5.738281 -8.578125 6.441406 -8.382812 6.953125 -8 C 7.472656 -7.625 7.734375 -7.101562 7.734375 -6.4375 C 7.734375 -5.945312 7.597656 -5.53125 7.328125 -5.1875 C 7.054688 -4.851562 6.6875 -4.628906 6.21875 -4.515625 C 6.789062 -4.421875 7.238281 -4.179688 7.5625 -3.796875 C 7.894531 -3.410156 8.0625 -2.929688 8.0625 -2.359375 C 8.0625 -1.617188 7.78125 -1.039062 7.21875 -0.625 C 6.664062 -0.207031 5.90625 0 4.9375 0 L 1.125 0 Z M 2.578125 -7.28125 L 2.578125 -5.015625 L 4.78125 -5.015625 C 5.238281 -5.015625 5.597656 -5.117188 5.859375 -5.328125 C 6.117188 -5.535156 6.25 -5.816406 6.25 -6.171875 C 6.25 -6.535156 6.117188 -6.8125 5.859375 -7 C 5.597656 -7.1875 5.238281 -7.28125 4.78125 -7.28125 Z M 2.578125 -3.75 L 2.578125 -1.28125 L 4.78125 -1.28125 C 5.351562 -1.28125 5.796875 -1.390625 6.109375 -1.609375 C 6.421875 -1.828125 6.578125 -2.132812 6.578125 -2.53125 C 6.578125 -2.90625 6.414062 -3.203125 6.09375 -3.421875 C 5.78125 -3.640625 5.34375 -3.75 4.78125 -3.75 Z M 2.578125 -3.75 "/></g></g></g><g fill="#ffffff" fill-opacity="1"><g transform="translate(174.706193, 307.212635)"><g><path d="M 2.578125 0 L 1.125 0 L 1.125 -8.578125 L 2.578125 -8.578125 Z M 2.578125 0 "/></g></g></g><g fill="#ffffff" fill-opacity="1"><g transform="translate(181.249254, 307.212635)"><g><path d="M 2.578125 -1.3125 L 6.28125 -1.3125 L 6.28125 0 L 1.125 0 L 1.125 -8.578125 L 2.578125 -8.578125 Z M 2.578125 -1.3125 "/></g></g></g><g fill="#ffffff" fill-opacity="1"><g transform="translate(190.633403, 307.212635)"><g><path d="M 7.25 -7.28125 L 2.578125 -7.28125 L 2.578125 -4.96875 L 6.765625 -4.96875 L 6.765625 -3.65625 L 2.578125 -3.65625 L 2.578125 -1.296875 L 7.40625 -1.296875 L 7.40625 0 L 1.125 0 L 1.125 -8.578125 L 7.25 -8.578125 Z M 7.25 -7.28125 "/></g></g></g><g fill="#ffffff" fill-opacity="1"><g transform="translate(201.511567, 307.212635)"><g/></g></g><g fill="#ffffff" fill-opacity="1"><g transform="translate(207.515795, 307.212635)"><g><path d="M 6.65625 -1.9375 L 2.34375 -1.9375 L 1.515625 0 L 0.015625 0 L 3.796875 -8.578125 L 5.28125 -8.578125 L 9.03125 0 L 7.484375 0 Z M 6.109375 -3.21875 L 4.5 -7.03125 L 2.875 -3.21875 Z M 6.109375 -3.21875 "/></g></g></g><g fill="#ffffff" fill-opacity="1"><g transform="translate(219.398143, 307.212635)"><g><path d="M 1.125 -8.578125 L 4.546875 -8.578125 C 5.617188 -8.578125 6.453125 -8.320312 7.046875 -7.8125 C 7.640625 -7.300781 7.9375 -6.578125 7.9375 -5.640625 C 7.9375 -4.671875 7.640625 -3.914062 7.046875 -3.375 C 6.453125 -2.84375 5.617188 -2.578125 4.546875 -2.578125 L 2.578125 -2.578125 L 2.578125 0 L 1.125 0 Z M 2.578125 -7.28125 L 2.578125 -3.890625 L 4.484375 -3.890625 C 5.859375 -3.890625 6.546875 -4.460938 6.546875 -5.609375 C 6.546875 -6.722656 5.859375 -7.28125 4.484375 -7.28125 Z M 2.578125 -7.28125 "/></g></g></g><g fill="#ffffff" fill-opacity="1"><g transform="translate(230.484498, 307.212635)"><g><path d="M 1.125 -8.578125 L 4.546875 -8.578125 C 5.617188 -8.578125 6.453125 -8.320312 7.046875 -7.8125 C 7.640625 -7.300781 7.9375 -6.578125 7.9375 -5.640625 C 7.9375 -4.671875 7.640625 -3.914062 7.046875 -3.375 C 6.453125 -2.84375 5.617188 -2.578125 4.546875 -2.578125 L 2.578125 -2.578125 L 2.578125 0 L 1.125 0 Z M 2.578125 -7.28125 L 2.578125 -3.890625 L 4.484375 -3.890625 C 5.859375 -3.890625 6.546875 -4.460938 6.546875 -5.609375 C 6.546875 -6.722656 5.859375 -7.28125 4.484375 -7.28125 Z M 2.578125 -7.28125 "/></g></g></g><g fill="#ffffff" fill-opacity="1"><g transform="translate(157.030688, 173.097997)"><g><path d="M 35.082031 -71.804688 L 8.820312 -71.804688 L 8.820312 0 L 19.285156 0 L 19.285156 -23.902344 L 35.082031 -23.902344 C 50.570312 -23.902344 58.367188 -35.800781 58.367188 -47.800781 C 58.367188 -59.800781 50.570312 -71.804688 35.082031 -71.804688 Z M 35.082031 -34.160156 L 19.285156 -34.160156 L 19.285156 -61.339844 L 35.082031 -61.339844 C 43.800781 -61.339844 48.109375 -54.570312 48.109375 -47.699219 C 48.109375 -40.929688 43.800781 -34.160156 35.082031 -34.160156 Z M 35.082031 -34.160156 "/></g></g></g></svg>